<svg id="Layer_1" enable-background="new 0 0 512 512" height="32" viewBox="0 0 512 512" width="32" xmlns="http://www.w3.org/2000/svg"><g><path d="m326.333 70.333h-140.667c-102.376 0-185.666 83.29-185.666 185.667s83.29 185.667 185.666 185.667h140.667c102.377 0 185.667-83.29 185.667-185.667s-83.29-185.667-185.667-185.667zm155.667 185.667c0 85.835-69.832 155.667-155.667 155.667h-140.667c-85.835 0-155.666-69.832-155.666-155.667s69.831-155.666 155.666-155.666h140.667c85.835-.001 155.667 69.831 155.667 155.666z"/><path d="m389.639 260.815-44.561-70.918-27.791-.005v132.405h30v-72.497l44.561 70.918h27.791v-131.015h-30z"/><path d="m92.361 240.036v30 51.885h30v-51.885h37.998v-30h-37.998v-19.957h41.278v-30h-71.278z"/><path d="m260.232 275.225c0 4.557-1.316 9.879-11.083 14.797-3.039 1.531-6.356 2.275-10.14 2.275-.013 0-.026 0-.04 0-4.102-.006-7.653-1.003-10.855-3.049-7.637-4.879-9.171-8.955-9.171-13.949v-85.595h-30v85.595c0 16.272 7.745 29.471 23.019 39.23 8.047 5.141 17.12 7.755 26.966 7.768h.081c8.461 0 16.413-1.844 23.634-5.481 17.791-8.959 27.589-23.73 27.589-41.591v-85.522h-30z"/></g></svg>