<svg id="Capa_1" enable-background="new 0 0 512 512" height="32" viewBox="0 0 512 512" width="32" xmlns="http://www.w3.org/2000/svg"><g><path d="m106 0h-45v30h45c8.271 0 15 6.729 15 15v362c0 20.723 14.085 38.209 33.181 43.414-2.044 5.137-3.181 10.729-3.181 16.586 0 24.813 20.187 45 45 45s45-20.187 45-45c0-5.258-.915-10.305-2.58-15.01h95.161c-1.665 4.705-2.58 9.752-2.58 15.01 0 24.813 20.187 45 45 45s45-20.187 45-45c0-5.258-.915-10.305-2.58-15h32.579v-30h-30v-181h-30v-120h-180v120h-30v181h-15c-8.271 0-15-6.729-15-15v-362c0-24.813-20.187-45-45-45zm105 467c0 8.271-6.729 15-15 15s-15-6.729-15-15 6.729-15 15-15 15 6.729 15 15zm180 0c0 8.271-6.729 15-15 15s-15-6.729-15-15 6.729-15 15-15 15 6.729 15 15zm-150-316h45v30h30v-30h45v90c-36.831 0-83.138 0-120 0zm45 120h30v30h-30zm-30 0v60h90v-60h45v151h-180v-151z"/></g></svg>