<?xml version="1.0" encoding="utf-8"?>
<!-- Generator: Adobe Illustrator 24.1.2, SVG Export Plug-In . SVG Version: 6.00 Build 0)  -->
<svg version="1.1" id="OBJECTS" xmlns="http://www.w3.org/2000/svg" xmlns:xlink="http://www.w3.org/1999/xlink" x="0px" y="0px"
	 viewBox="0 0 820 312" style="enable-background:new 0 0 820 312;" xml:space="preserve">
<style type="text/css">
	.st0{clip-path:url(#SVGID_2_);fill:#FAF5ED;}
	.st1{clip-path:url(#SVGID_2_);fill:#EFC041;}
	.st2{clip-path:url(#SVGID_2_);fill:none;stroke:#F1E1C5;stroke-miterlimit:10;}
	.st3{clip-path:url(#SVGID_2_);fill:#B98A68;}
	.st4{clip-path:url(#SVGID_2_);fill:#DE8739;}
	.st5{clip-path:url(#SVGID_2_);fill:#F1E1C5;}
	.st6{clip-path:url(#SVGID_2_);fill:#A35D30;}
	.st7{clip-path:url(#SVGID_2_);fill:#7E9BE0;}
	.st8{clip-path:url(#SVGID_2_);fill:#222D44;}
	.st9{clip-path:url(#SVGID_2_);}
	.st10{fill:#222D44;}
	.st11{font-family:'OpenSans-Regular';}
	.st12{font-size:13.1295px;}
	.st13{clip-path:url(#SVGID_2_);fill:#74AEA7;}
	.st14{fill:#F1E1C5;}
	.st15{clip-path:url(#SVGID_2_);fill:none;stroke:#FFFFFF;stroke-miterlimit:10;}
	.st16{fill:#BE272D;}
	.st17{font-family:'MicrosoftJhengHeiLight';}
	.st18{font-size:48px;}
</style>
<g>
	<defs>
		<rect id="SVGID_1_" width="820" height="312"/>
	</defs>
	<clipPath id="SVGID_2_">
		<use xlink:href="#SVGID_1_"  style="overflow:visible;"/>
	</clipPath>
	<rect class="st0" width="820" height="312"/>
	<path class="st1" d="M655.55,263.69c12.16-1.23,25.05-1.87,35.23-8.63c8.74-5.8,14.2-15.29,19.34-24.44
		c6.71-11.93,13.41-23.86,20.12-35.79c3.35-5.96,6.74-11.97,11.19-17.17c8.33-9.73,19.86-16.03,30.1-23.72
		c18.83-14.14,35.09-34.04,58.17-38.73c6.3-1.28,13.05-1.27,18.93,1.32c13.89,6.11,18.11,23.3,21.77,38.03
		c4.6,18.51,10.98,36.58,19.02,53.88c5.91,12.71,12.9,26.61,8.97,40.06c-2.64,9.03-9.76,15.94-16.69,22.31
		c-26.92,24.76-55.4,48.37-87.96,65.03c-24.4,12.49-50.66,20.86-76.78,29.17c-25.93,8.25-51.97,16.53-78.82,20.97
		c-11.32,1.87-23.06,3.04-34.15,0.12c-9.11-2.39-17.27-7.4-25.63-11.75c-10.79-5.62-22.11-10.22-33.77-13.72
		c-7.44-2.23-15.65-4.45-20.12-10.8c-3.97-5.65-9.69-23.51-7.49-30.28c2.81-8.65,17.93-14.88,25.12-19.05
		c22.26-12.91,46.29-22.76,71.2-29.23C627.17,267.67,641.3,265.12,655.55,263.69z"/>
	<path class="st2" d="M212.54,12.91c8.39-9.11,17.26-17.78,26.56-25.96"/>
	<path class="st2" d="M219.51,16.6c11.8-13.85,24.53-26.9,38.08-39.04"/>
	<path class="st2" d="M232.63,15.77c8.21-10.17,17.23-19.7,26.93-28.46"/>
	<path class="st2" d="M236.78,23.18c10.02-14.93,21.83-28.65,35.1-40.78"/>
	<path class="st2" d="M245.77,25.62c9.72-15.9,21.42-30.58,34.73-43.61"/>
	<path class="st2" d="M259.66,14.51c6.27-10.13,13.58-19.63,21.76-28.3"/>
	<path class="st2" d="M261.65,17.75c7.08-11.61,15.37-22.47,24.71-32.35"/>
	<path class="st2" d="M267.92,15.77c7.71-12.26,16.33-23.94,25.78-34.92"/>
	<path class="st2" d="M276.43,15.3c7.4-12.56,15.97-24.44,25.56-35.43c0.19-0.22,0.48-0.45,0.73-0.31c0.25,0.14-0.22,0.58-0.23,0.29
		"/>
	<path class="st2" d="M282.64,14.92c8.91-13.46,18.51-26.47,28.74-38.96"/>
	<path class="st2" d="M292.04,11.2c7.95-11.2,15.91-22.4,23.86-33.59"/>
	<path class="st2" d="M297.43,11.24c6.82-10.91,14.22-21.46,22.15-31.6"/>
	<path class="st2" d="M302.73,11.22c6.62-10.89,13.62-21.56,20.97-31.97"/>
	<path class="st2" d="M308.49,9.18c7.98-12.44,16.74-24.38,26.21-35.74"/>
	<path class="st2" d="M324.19,2.29c9.61-12.43,19.8-24.42,30.52-35.91"/>
	<path class="st2" d="M337.98-2.75c7.64-11.74,15.89-23.1,24.69-34"/>
	<path class="st2" d="M329.78,5.46c8-12.03,14.01-25.38,17.74-39.34"/>
	<path class="st3" d="M-96.97,202.29c58.57,42.03,130.67,61.28,202.25,69.88s143.97,7.37,215.86,12.77
		c69.11,5.19,137.72,16.52,206.96,19.6c51.54,2.3,103.29,0,154.42-6.84c17.07-2.28,34.91-5.01,51.15,0.72v62.96h-878.89V218
		l51.57-15.71"/>
	<path class="st4" d="M41.97,205.59c5.31,5.35,10.45,10.89,16.17,15.8c7.75,6.65,16.47,12.07,25.15,17.46
		c11.29,7.01,22.6,14.04,34.64,19.67c7.43,3.47,15.16,6.44,21.93,11.07c1.27,0.87,2.55,1.86,3.18,3.27
		c0.77,1.73,0.39,3.73-0.07,5.56c-2.67,10.73-7.61,20.89-14.41,29.6c-7.32,9.38-16.64,16.97-25.01,25.43
		c-14.91,15.06-28.3,33.87-48.74,39.48c-1.9,0.52-3.93,0.92-5.84,0.4c-2.6-0.7-4.46-2.94-5.98-5.15
		c-5.28-7.68-8.59-16.51-12.19-25.12c-11.95-28.55-27.61-55.55-46.48-80.09c-9.65-12.55-20.17-24.5-28.46-37.99
		c-8.3-13.5-14.21-28.34-18.51-43.56c-2.49-8.82-12.37-34.41-5.47-42.3c7.92-9.05,27.19,4.59,34.37,8.65
		c13.17,7.45,25.85,15.76,37.94,24.85C17.54,182.69,30.19,193.71,41.97,205.59z"/>
	<path class="st5" d="M443.86-107.61c-16.36,8.31-22.81,28.44-14.3,44.7c12.43,23.72,27.95,45.82,46.08,65.52
		c20.54,22.33,45.54,42.16,75.13,48.82c38.17,8.6,79.8-5.53,116.44,8.2c33.94,12.72,56.77,47.07,91.4,57.76
		c6.37,1.97,13.25,3.06,19.68,1.33c7.38-1.99,13.27-7.39,18.84-12.61c11.87-11.13,23.75-22.25,35.62-33.38
		c8.82-8.27,17.98-17.04,21.73-28.54c3.07-9.39,2.16-19.57,1.12-29.39c-2.14-20.1-4.95-40.77-15.12-58.25
		c-12.72-21.86-35.51-36.05-58.93-45.6c-40.72-16.6-85.12-21.64-128.96-25.07c-51.72-4.04-103.59-6.08-155.46-6.09
		c-7.81,0-15.7,0.05-23.31,1.83C464.79-116.26,453.82-112.67,443.86-107.61z"/>
	<path class="st6" d="M-62.19,33.68c5.88-16.78,11.76-33.55,17.65-50.33c4.04-11.51,8.27-23.37,16.52-32.36
		c6.53-7.13,15.15-11.97,23.81-16.28c41.27-20.55,86.93-31.81,132.95-34.6c7.45-0.45,15.01-0.68,22.28,1.02
		c5.47,1.28,11.17,4.13,13.21,9.36c1.17,3,0.97,6.35,0.39,9.52c-2.63,14.37-12.26,26.3-18.56,39.49
		c-4.56,9.56-7.38,19.83-10.44,29.97c-9.54,31.66-22.5,63.86-47.38,85.65c-3.41,2.98-7.14,5.81-11.51,6.97
		c-5.19,1.38-10.68,0.3-15.93-0.85c-12.16-2.67-24.54-5.76-34.91-12.64c-8.14-5.41-14.84-13.02-23.68-17.2
		c-10.58-5-22.91-4.47-34.11-7.89c-8.52-2.6-16.18-7.43-24.47-10.71"/>
	<path class="st6" d="M257.8,34.39c12.81,3.72,26.15,6.45,39.43,5.25c12.64-1.15,24.66-5.79,36.91-9.11
		c12.99-3.52,26.33-5.57,39.64-7.61c10.26-1.57,20.51-3.15,30.77-4.72c6.56-1.01,13.91-2.5,17.54-8.05c1.3-1.99,1.97-4.31,2.63-6.6
		c2.16-7.56,4.33-15.15,5.44-22.94c0.71-5.04,0.97-10.24-0.34-15.15c-2.4-9.05-9.62-15.89-16.53-22.22
		c-4.66-4.26-9.84-8.76-16.15-9.13c-3.6-0.21-7.13,0.98-10.54,2.16c-6.81,2.35-13.61,4.71-20.41,7.07
		c-10.24,3.56-20.56,7.17-29.83,12.79c-10.88,6.6-19.95,15.73-29.58,24.04c-15.34,13.23-32.33,24.54-50.47,33.57
		c-4.26,2.12-12.42,5.88-11.72,11.83C245.22,31.04,253.49,33.15,257.8,34.39z"/>
	<path class="st7" d="M613,32.05c7.63,5.07,15.88,9.12,24.11,13.14c30.4,14.88,60.88,29.79,92.77,41.13
		c16.54,5.88,33.42,10.79,50.53,14.69c4.4,1,8.93,1.95,13.41,1.32c4.83-0.68,9.2-3.12,13.44-5.52c7.78-4.4,15.56-8.8,23.34-13.19
		c1.48-0.83,3.04-1.76,3.76-3.29c0.8-1.7,0.37-3.69-0.08-5.51c-1.66-6.79-3.32-13.59-4.98-20.38c-1.45-5.92-2.92-11.93-5.89-17.26
		c-4.32-7.78-11.53-13.59-19.26-18C779.69,5.24,750.31,4.13,722.69-1.35c-14.61-2.9-28.94-7.09-43.58-9.79
		c-13.64-2.52-27.48-3.74-41.3-4.94c-14.29-1.24-48.99-10.55-56.77,7.04C574.35,6.08,602.57,25.12,613,32.05z"/>
	<path class="st5" d="M643.03,30.7c10.32,5.09,20.72,10.09,31.54,14c8.31,3,16.86,5.36,25.08,8.62c8.61,3.42,16.81,7.82,25.38,11.35
		c14.98,6.16,30.92,9.57,46.77,12.94c26.53,5.66,53.07,11.31,79.6,16.97c1.17,0.25,2.4,0.5,3.55,0.16c2.87-0.85,3.52-4.56,3.62-7.56
		c0.47-14.04,0.41-28.09-0.18-42.12c-0.18-4.39-0.5-9.02-2.97-12.66c-3.47-5.1-10.11-6.77-16.14-8.05
		C793.9,14.74,748.49,5.12,702.72-2.52c-22.85-3.81-45.79-7.13-68.82-9.7c-9.35-1.04-49.03-11.67-45.04,5.83
		c2.15,9.41,13.09,14.5,20.52,19.05C620.24,19.32,631.62,25.08,643.03,30.7z"/>
	<path class="st8" d="M38.58,249.37c14.53-4.52,28.41-10.77,43.32-14.16c14.92-3.39,31.56-3.63,45.24,3.45
		c10.91,5.65,21.57,16.06,33.36,13.01c4.76-1.23,8.45-4.53,12.28-7.39c8.82-6.59,19.3-11.29,30.43-13.65c4.24-0.9,8.69-1.46,13-0.61
		c4.49,0.89,8.51,3.23,12.38,5.58c21.92,13.34,42.6,28.39,63.24,43.42c8.81,6.42,17.62,12.83,26.43,19.25
		c5.62,4.09,11.24,8.19,16.5,12.67c21.31,18.18,36.17,42.78,41.62,68.9c1.24,5.93,1.77,12.72-2.43,17.17
		c-2.54,2.69-6.37,3.98-10.09,4.98c-34.17,9.14-71.03,1.25-106.79-2.17c-37.18-3.55-74.51-2.16-111.78-2.67
		c-37.27-0.51-75.06-3.02-110.75-14c-35.69-10.98-69.43-31.23-89.66-60.84c-12.66-18.53-20.17-43,5.37-52.11
		C-21.38,260.07,9.79,258.32,38.58,249.37z"/>
	<path class="st5" d="M-8.5,223.55c11.11-5.14,22.29-10.3,34.1-13.5c9.95-2.69,20.4-4,29.65-8.55
		c12.77-6.28,21.82-17.97,31.74-28.16c8.14-8.36,17.12-15.89,26.76-22.46c0.94-0.64,1.95-1.35,2.35-2.42
		c0.52-1.41-0.19-2.96-0.98-4.24c-5.64-9-15.95-13.69-25.34-18.64c-18.41-9.72-35.35-22.26-54.56-30.3
		C22.34,89.9,8.68,86.63-4.39,81.73c-16.12-6.04-31.56-14.63-48.6-17.07c-1.48,25.96-6.47,51.58-11.46,77.09
		c-2.41,12.34-4.82,24.68-7.69,36.92c-3.12,13.34-6.78,26.54-9.93,39.87c-1.64,6.96-10.83,32.42-3.72,37.8
		c6.05,4.58,30.36-11.09,36.99-14.15C-35.37,235.98-21.93,229.77-8.5,223.55z"/>
	<g class="st9">
		<g>
			<g>
				<g>
					<g>
						<path class="st10" d="M441.53,190.71c0,0.72-0.58,1.3-1.3,1.3c-0.72,0-1.3-0.58-1.3-1.3c0-0.72,0.58-1.3,1.3-1.3
							C440.95,189.41,441.53,189.99,441.53,190.71z"/>
						<path class="st10" d="M444.37,187.57c-0.08-0.23-0.22-0.44-0.4-0.61c-0.17-0.18-0.38-0.31-0.61-0.4
							c-0.19-0.07-0.47-0.16-0.99-0.18c-0.56-0.03-0.73-0.03-2.14-0.03c-1.42,0-1.59,0.01-2.15,0.03c-0.52,0.02-0.8,0.11-0.99,0.18
							c-0.23,0.09-0.44,0.22-0.61,0.4c-0.18,0.17-0.31,0.38-0.4,0.61c-0.07,0.19-0.16,0.47-0.18,0.99
							c-0.03,0.56-0.03,0.73-0.03,2.15s0.01,1.59,0.03,2.15c0.02,0.52,0.11,0.8,0.18,0.99c0.08,0.23,0.22,0.44,0.4,0.61
							c0.17,0.18,0.38,0.31,0.61,0.4c0.19,0.07,0.47,0.16,0.99,0.18c0.56,0.03,0.73,0.03,2.15,0.03c1.42,0,1.59-0.01,2.15-0.03
							c0.52-0.02,0.8-0.11,0.99-0.18c0.46-0.18,0.83-0.54,1.01-1.01c0.07-0.19,0.16-0.47,0.18-0.99c0.03-0.56,0.03-0.73,0.03-2.15
							s-0.01-1.59-0.03-2.15C444.53,188.04,444.44,187.76,444.37,187.57z M440.23,193.43c-1.51,0-2.73-1.22-2.73-2.73
							c0-1.51,1.22-2.73,2.73-2.73c1.51,0,2.73,1.22,2.73,2.73C442.96,192.21,441.74,193.43,440.23,193.43z M443.07,188.51
							c-0.35,0-0.64-0.29-0.64-0.64c0-0.35,0.29-0.64,0.64-0.64s0.64,0.29,0.64,0.64C443.7,188.22,443.42,188.51,443.07,188.51z"/>
						<path class="st10" d="M440.23,181.46c-5.11,0-9.25,4.14-9.25,9.25c0,5.11,4.14,9.25,9.25,9.25c5.1,0,9.25-4.14,9.25-9.25
							C449.48,185.6,445.34,181.46,440.23,181.46z M445.81,193.02c-0.03,0.6-0.12,1-0.26,1.36c-0.29,0.75-0.89,1.35-1.64,1.64
							c-0.36,0.14-0.76,0.23-1.36,0.26c-0.6,0.03-0.79,0.03-2.31,0.03c-1.52,0-1.71-0.01-2.31-0.03c-0.6-0.03-1-0.12-1.36-0.26
							c-0.37-0.14-0.71-0.36-0.99-0.65c-0.29-0.28-0.51-0.62-0.65-0.99c-0.14-0.36-0.23-0.76-0.26-1.36
							c-0.03-0.6-0.03-0.79-0.03-2.31c0-1.52,0.01-1.71,0.03-2.31c0.03-0.6,0.12-1,0.26-1.36c0.14-0.37,0.36-0.71,0.65-0.99
							c0.28-0.29,0.62-0.51,0.99-0.65c0.36-0.14,0.76-0.23,1.36-0.26c0.6-0.03,0.79-0.03,2.31-0.03c1.52,0,1.71,0.01,2.31,0.03
							c0.6,0.03,1,0.12,1.36,0.26c0.37,0.14,0.71,0.36,0.99,0.65c0.29,0.28,0.51,0.62,0.65,0.99c0.14,0.36,0.23,0.76,0.26,1.36
							c0.03,0.6,0.03,0.79,0.03,2.31C445.84,192.23,445.83,192.42,445.81,193.02z"/>
					</g>
				</g>
				<g>
					<g>
						<path class="st10" d="M379.76,181.46c-5.11,0-9.24,4.14-9.24,9.25c0,5.11,4.14,9.25,9.24,9.25c5.11,0,9.25-4.14,9.25-9.25
							C389.01,185.6,384.87,181.46,379.76,181.46z M383.99,188.67c0,0.09,0.01,0.18,0.01,0.27c0,2.8-2.13,6.04-6.04,6.04l0,0l0,0
							c-1.2,0-2.31-0.35-3.25-0.95c0.17,0.02,0.33,0.03,0.51,0.03c0.99,0,1.91-0.34,2.64-0.91c-0.93-0.02-1.71-0.63-1.98-1.47
							c0.13,0.02,0.26,0.04,0.4,0.04c0.19,0,0.38-0.03,0.56-0.07c-0.97-0.19-1.7-1.05-1.7-2.08c0-0.01,0-0.02,0-0.03
							c0.29,0.16,0.61,0.25,0.96,0.27c-0.57-0.38-0.94-1.03-0.94-1.77c0-0.39,0.11-0.75,0.29-1.07c1.05,1.28,2.61,2.13,4.37,2.22
							c-0.04-0.16-0.06-0.32-0.06-0.48c0-1.17,0.95-2.12,2.12-2.12c0.61,0,1.16,0.26,1.55,0.67c0.48-0.1,0.94-0.27,1.35-0.52
							c-0.16,0.5-0.5,0.91-0.93,1.17c0.43-0.05,0.84-0.17,1.22-0.33C384.76,188,384.4,188.37,383.99,188.67z"/>
					</g>
				</g>
				<g>
					<g>
						<path class="st10" d="M419.19,190.71c0-5.11-4.14-9.25-9.24-9.25c-5.11,0-9.25,4.14-9.25,9.25c0,5.11,4.14,9.25,9.25,9.25
							c0.05,0,0.11,0,0.16,0v-7.19h-1.99v-2.32h1.99v-1.7c0-1.98,1.21-3.05,2.97-3.05c0.85,0,1.57,0.06,1.78,0.09v2.07h-1.21
							c-0.96,0-1.14,0.45-1.14,1.12v1.47h2.29l-0.3,2.32h-1.99v6.84C416.36,198.48,419.19,194.93,419.19,190.71z"/>
					</g>
				</g>
			</g>
		</g>
		<g>
		</g>
		<g>
			<text transform="matrix(1 0 0 1 375.6869 167.3209)" class="st10 st11 st12">OnlyFriends </text>
		</g>
	</g>
	<path class="st1" d="M14.99,67.23c10.53,2.33,21.29,3.36,32.04,4.29c7.62,0.65,15.4,1.24,22.84-0.56
		c17.5-4.24,29.29-20.66,36.48-37.16s11.59-34.5,22.12-49.11c14.69-20.39,39.15-31.26,56.99-48.97
		c7.13-7.07,13.17-15.23,17.85-24.11c2.04-3.86,3.85-8.02,3.72-12.38c-0.2-6.67-4.82-12.27-9.25-17.26
		c-9.74-10.96-19.78-21.78-31.43-30.7c-9.9-7.58-20.84-13.69-31.73-19.77c-13.43-7.49-26.85-14.99-40.28-22.48
		c-2.7-1.51-5.5-3.05-8.57-3.42c-4.35-0.53-8.6,1.34-12.5,3.33c-26.15,13.34-47.95,34.1-65.89,57.33
		c-17.94,23.23-32.27,49-46.29,74.79c-12.97,23.85-25.84,48.11-32.58,74.41c-4.68,18.25-1.92,41.99,21.21,39.32
		C-27.41,52.14-6.95,62.37,14.99,67.23z"/>
	<path class="st13" d="M-51.03,262.48c43.66-8.98,89.16-21.2,133.99-24.11c9.22-0.6,18.63-1.05,27.67,1.14
		c12.86,3.11,24.53,11.44,37.7,11.56c20.66,0.19,35.99-19.75,56.64-19.66c11.06,0.05,21.45,6.03,29.4,13.47
		c7.95,7.43,14.05,16.36,21.19,24.47c29.99,34.1,76.27,51.98,110.29,82.64c7.7,6.94,15.28,16.78,11.6,25.83
		c-3.05,7.5-12.39,10.56-20.75,12.61c-54.51,13.39-111.31,19.59-168.23,18.39c-45.62-0.97-93.19-7.32-131.91-31.08
		c-12.32-7.56-23.44-16.71-35.31-24.89c-19.03-13.12-39.89-23.7-59.31-36.3c-4.86-3.16-9.69-6.49-13.46-10.76
		C-62.37,293.45-61.75,274.22-51.03,262.48c-0.81,1.72-1.61,3.45-2.41,5.17"/>
	<path class="st1" d="M58.91,267.77c10.14-3.26,20.61-6.56,31.46-5.97c10.69,0.58,20.9,4.91,31.53,6.37
		c23.52,3.25,46.94-7.67,70.37-3.72c11.82,2,22.65,7.64,33.21,13.19c20.24,10.64,40.48,21.28,60.72,31.92
		c13.04,6.86,26.15,13.75,37.94,22.39c14.69,10.76,27.16,24.15,36.67,39.09c2.38,3.74,4.66,7.98,3.86,12.17
		c-1.21,6.37-8.67,9.53-15.27,11.44c-9.08,2.63-18.33,4.78-27.69,6.47c-62.82,11.39-128.83,2.43-191.53-13.65
		C67.47,371.4,6.84,348.32-55.44,330.7c-8.03-2.27-28.19-9.64-17.62-19.76c4.36-4.17,14.88-5.55,20.75-7.44
		c7.47-2.4,14.93-4.8,22.4-7.2C-0.31,286.79,29.3,277.28,58.91,267.77z"/>
	<path class="st5" d="M-6.41,268.04c13.37-4.6,26.71-10.61,41.21-10.02c18.47,0.76,35.32,12.11,53.69,14.88
		c17.22,2.6,34.73-2.51,51.76,1.36c20.94,4.75,36.36,21.69,52.73,35.39c26.36,22.05,59.48,38.5,77.27,67.06
		c4.19,6.72,7.45,14.36,6.58,21.87c-0.2,1.71-0.67,3.5-1.99,4.64c-1.41,1.22-3.49,1.46-5.43,1.63
		c-69.46,6.08-140.41-8.52-208.35-28.87c-23.2-6.95-46.29-14.61-68.19-24.98c-16.53-7.83-32.28-17.15-47.99-26.46
		c-10.57-6.26-21.13-12.51-31.7-18.77c-6.74-3.99-20.65-12-16.84-21.09c3.69-8.78,19.89-4.98,27.66-5.02
		C-52.11,279.55-28.47,275.63-6.41,268.04z"/>
	<path class="st13" d="M209.91,20.09c10.09,7.06,20.65,15.01,32.96,15.39c6.47,0.2,12.79-1.76,18.97-3.69
		c26.43-8.28,52.85-16.56,79.28-24.84c8.73-2.73,18.11-5.94,23.25-13.5c0.62-0.91,1.17-1.92,1.18-3.01
		c0.02-2.68-3.02-4.21-5.63-4.87c-15.78-3.98-32.32,0.4-48.58,0.72c-16.5,0.33-32.76-3.54-49.13-5.66
		c-20.87-2.71-41.99-2.58-63.04-2.45c-7.09,0.04-14.27,0.1-21.1,2.03c-3.93,1.11-12.13,4.08-13.85,8.27
		c-2.56,6.24,6,7.78,10.63,10.22C186.97,5.09,198.69,12.24,209.91,20.09z"/>
	<path class="st8" d="M594.47,0.09c44.54,14.3,82,48.28,128.17,55.77c18.28,2.97,37.04,1.57,55.35,4.38
		c22.23,3.41,43.1,12.9,65.16,17.31c3.83,0.77,7.85,1.37,11.58,0.22c8.35-2.58,11.73-12.43,13.33-21.02
		c1.67-8.97,2.73-18.06,3.18-27.18c0.32-6.66,0.3-13.47-1.67-19.84c-3.17-10.24-11.13-18.42-20.12-24.26
		c-17.76-11.55-39.54-15.13-60.7-15.93c-21.17-0.8-42.43,0.91-63.5-1.26c-20.88-2.15-41.22-8.09-62.07-10.47
		c-17.74-2.03-35.67-1.47-53.52-1.12c-13.26,0.26-26.61,0.4-39.6,3.07c-7.14,1.46-44.8,13.82-33.82,24.19
		c5.63,5.32,20.71,6.66,28.07,8.41C574.39-5.25,584.57-3.09,594.47,0.09z"/>
	<path class="st6" d="M571.1,317.73c9.62-10.55,18.91-22.06,30.58-28.79c31.85-18.39,74.14,2.48,102.85-22.52
		c19.9-17.33,25.93-50.91,43-72.38c10.65-13.4,25.22-21.56,34.82-36.14c5.91-8.97,9.59-19.9,14.97-29.37
		c5.27-9.29,12.18-17.12,20.1-22.81c5.79-4.16,12.54-7.23,19.19-5.59c13.16,3.24,19.23,22.05,22.98,38.07
		c10.2,43.53,20.4,87.07,30.61,130.6c2.72,11.62,5.43,24.22,2.06,35.42c-3.22,10.71-11.55,17.9-20.35,21.28
		c-8.8,3.38-18.2,3.56-27.44,4.21c-20.1,1.4-40,5.13-59.87,8.85c-33.03,6.19-66.05,12.37-99.08,18.56
		c-24.14,4.52-48.83,9.04-72.98,3.4c-13.83-3.22-27.81-9.76-41.51-6.41c-6.36,1.56-12.21,5.18-18.26,8
		c-7.57,3.54-16.95,7.33-25.2,7.06c-9.17-0.3-3.73-8.88,0.92-12.41C543.6,345.32,557.87,332.25,571.1,317.73z"/>
	<path class="st13" d="M725.21,133.38c2,4.76,3.3,10,6.75,13.85c3.45,3.84,10.13,5.5,13.65,1.72c1.92-2.06,2.45-5.22,4.67-6.96
		c1.04-0.81,2.35-1.22,3.39-2.03c1.4-1.09,2.18-2.78,2.91-4.4c2.5-5.58,5.03-11.3,4.48-17.63c-0.17-1.91-0.66-3.8-1.56-5.49
		c-4.5-8.51-14.48-7.14-22.34-10.06c-2.76-1.02-5.29-2.6-8.04-3.63c-6.19-2.32-13.08-1.77-19.62-1.56c-1.8,0.06-3.57,0.58-5.02,1.65
		c-6.54,4.8,4.3,11.25,7.17,14.49C717.01,119.37,722.05,125.85,725.21,133.38z"/>
	<path class="st8" d="M756.1,259.56c6.34-2.41,12.79-4.98,19.57-5.17c3.22-0.09,6.46,0.37,9.65-0.03c5.15-0.63,9.76-3.4,14.19-6.1
		c13.14-8.01,26.67-16.39,35.39-29.06c0.93-1.35,2.03-2.89,3.67-3.03c1.88-0.16,3.3,1.61,4.33,3.18
		c12.77,19.47,24.42,41.07,24.46,64.35c0.01,3.33-0.26,6.78-1.88,9.69c-1.74,3.14-4.83,5.26-7.8,7.27
		c-13.19,8.89-26.47,17.84-41.1,24.1c-17.79,7.61-37.08,11.03-56.32,13.06c-43.28,4.58-86.95,2.46-130.42,0.34
		c-18.73-0.92-37.45-1.83-56.18-2.75c-7.66-0.37-15.35-0.75-22.91-2.1c-4.36-0.78-19.67-2.45-20.81-7.53
		c-1.51-6.71,11.39-8.69,15.17-9.8c16.91-4.96,33.99-9.31,51.13-13.42c34.28-8.22,68.81-15.45,102.83-24.75
		C718.34,272.57,737.43,266.65,756.1,259.56z"/>
	<path class="st8" d="M153.54,112.72c-0.33,0.39-0.67,0.88-0.52,1.37c0.13,0.41,0.56,0.64,0.94,0.82
		c5.91,2.78,11.82,5.57,17.73,8.35c1.15,0.54,2.43,1.1,3.66,0.76c1.36-0.38,2.23-1.78,2.41-3.18c0.18-1.4-0.18-2.8-0.53-4.17
		c-1.04-4.13-1.95-8.41-1.31-12.62c0.62-4.03,2.63-7.7,3.75-11.63c4.02-14.09-5.41-4.65-9.88,0.73
		C164.37,99.67,158.96,106.19,153.54,112.72z"/>
	<g class="st9">
		<g>
			<g>
				<path class="st14" d="M20.09,36.94c1.93,0,1.93-3,0-3C18.16,33.94,18.16,36.94,20.09,36.94L20.09,36.94z"/>
			</g>
		</g>
		<g>
			<g>
				<path class="st14" d="M26.79,48.16c0,0.14,0,0.27,0,0.41c-0.01,0.21,0.04,0.4,0.13,0.58c0.06,0.19,0.16,0.35,0.31,0.48
					c0.14,0.15,0.3,0.25,0.48,0.31c0.18,0.09,0.37,0.14,0.58,0.13c0.13-0.02,0.27-0.04,0.4-0.05c0.25-0.07,0.47-0.2,0.66-0.39
					c0.08-0.1,0.16-0.2,0.23-0.3c0.14-0.23,0.2-0.49,0.2-0.76c0-0.14,0-0.27,0-0.41c0.01-0.21-0.04-0.4-0.13-0.58
					c-0.06-0.19-0.16-0.35-0.31-0.48c-0.14-0.15-0.3-0.25-0.48-0.31c-0.18-0.09-0.37-0.14-0.58-0.13c-0.13,0.02-0.27,0.04-0.4,0.05
					c-0.25,0.07-0.47,0.2-0.66,0.39c-0.08,0.1-0.16,0.2-0.23,0.3C26.86,47.64,26.8,47.89,26.79,48.16L26.79,48.16z"/>
			</g>
		</g>
		<g>
			<g>
				<path class="st14" d="M56.6,43.09c1.93,0,1.93-3,0-3C54.67,40.09,54.67,43.09,56.6,43.09L56.6,43.09z"/>
			</g>
		</g>
		<g>
			<g>
				<path class="st14" d="M55.78,49.66c1.93,0,1.93-3,0-3C53.85,46.66,53.85,49.66,55.78,49.66L55.78,49.66z"/>
			</g>
		</g>
		<g>
			<g>
				<path class="st14" d="M61.94,48.84c0.14,0,0.27,0,0.41,0c0.21,0.01,0.4-0.04,0.58-0.13c0.19-0.06,0.35-0.16,0.48-0.31
					c0.15-0.14,0.25-0.3,0.31-0.48c0.09-0.18,0.14-0.37,0.13-0.58c-0.02-0.13-0.04-0.27-0.05-0.4c-0.07-0.25-0.2-0.47-0.39-0.66
					c-0.1-0.08-0.2-0.16-0.3-0.23c-0.23-0.14-0.49-0.2-0.76-0.2c-0.14,0-0.27,0-0.41,0c-0.21-0.01-0.4,0.04-0.58,0.13
					c-0.19,0.06-0.35,0.16-0.48,0.31c-0.15,0.14-0.25,0.3-0.31,0.48c-0.09,0.18-0.14,0.37-0.13,0.58c0.02,0.13,0.04,0.27,0.05,0.4
					c0.07,0.25,0.2,0.47,0.39,0.66c0.1,0.08,0.2,0.16,0.3,0.23C61.41,48.77,61.67,48.84,61.94,48.84L61.94,48.84z"/>
			</g>
		</g>
		<g>
			<g>
				<path class="st14" d="M57.83,11.09c1.93,0,1.93-3,0-3C55.9,8.09,55.9,11.09,57.83,11.09L57.83,11.09z"/>
			</g>
		</g>
		<g>
			<g>
				<path class="st14" d="M59.47,42.27c1.93,0,1.93-3,0-3C57.54,39.27,57.54,42.27,59.47,42.27L59.47,42.27z"/>
			</g>
		</g>
		<g>
			<g>
				<path class="st14" d="M50.86,30.38c1.93,0,1.93-3,0-3C48.93,27.38,48.93,30.38,50.86,30.38L50.86,30.38z"/>
			</g>
		</g>
		<g>
			<g>
				<path class="st14" d="M56.6,20.94c1.93,0,1.93-3,0-3C54.67,17.94,54.67,20.94,56.6,20.94L56.6,20.94z"/>
			</g>
		</g>
		<g>
			<g>
				<path class="st14" d="M61.53,42.68c1.93,0,1.93-3,0-3C59.6,39.68,59.59,42.68,61.53,42.68L61.53,42.68z"/>
			</g>
		</g>
		<g>
			<g>
				<path class="st14" d="M63.99,60.74c1.93,0,1.93-3,0-3C62.06,57.74,62.05,60.74,63.99,60.74L63.99,60.74z"/>
			</g>
		</g>
		<g>
			<g>
				<path class="st14" d="M71.37,15.2c1.93,0,1.93-3,0-3C69.44,12.2,69.44,15.2,71.37,15.2L71.37,15.2z"/>
			</g>
		</g>
		<g>
			<g>
				<path class="st14" d="M23.78,17.66c1.93,0,1.93-3,0-3C21.85,14.66,21.85,17.66,23.78,17.66L23.78,17.66z"/>
			</g>
		</g>
		<g>
			<g>
				<path class="st14" d="M49.63,60.74c1.93,0,1.93-3,0-3C47.7,57.74,47.69,60.74,49.63,60.74L49.63,60.74z"/>
			</g>
		</g>
		<g>
			<g>
				<path class="st14" d="M50.04,52.94c1.93,0,1.93-3,0-3C48.11,49.94,48.1,52.94,50.04,52.94L50.04,52.94z"/>
			</g>
		</g>
		<g>
			<g>
				<path class="st14" d="M47.58,56.22c1.93,0,1.93-3,0-3C45.65,53.22,45.64,56.22,47.58,56.22L47.58,56.22z"/>
			</g>
		</g>
		<g>
			<g>
				<path class="st14" d="M55.92,51.85c0,0.14,0,0.27,0,0.41c-0.01,0.21,0.04,0.4,0.13,0.58c0.06,0.19,0.16,0.35,0.31,0.48
					c0.14,0.15,0.3,0.25,0.48,0.31c0.18,0.09,0.37,0.14,0.58,0.13c0.13-0.02,0.27-0.04,0.4-0.05c0.25-0.07,0.47-0.2,0.66-0.39
					c0.08-0.1,0.16-0.2,0.23-0.3c0.14-0.23,0.2-0.49,0.2-0.76c0-0.14,0-0.27,0-0.41c0.01-0.21-0.04-0.4-0.13-0.58
					c-0.06-0.19-0.16-0.35-0.31-0.48c-0.14-0.15-0.3-0.25-0.48-0.31c-0.18-0.09-0.37-0.14-0.58-0.13c-0.13,0.02-0.27,0.04-0.4,0.05
					c-0.25,0.07-0.47,0.2-0.66,0.39c-0.08,0.1-0.16,0.2-0.23,0.3C55.99,51.33,55.92,51.58,55.92,51.85L55.92,51.85z"/>
			</g>
		</g>
		<g>
			<g>
				<path class="st14" d="M95.58,22.17c1.93,0,1.93-3,0-3C93.65,19.17,93.64,22.17,95.58,22.17L95.58,22.17z"/>
			</g>
		</g>
		<g>
			<g>
				<path class="st14" d="M105.42,10.27c1.93,0,1.93-3,0-3C103.49,7.27,103.49,10.27,105.42,10.27L105.42,10.27z"/>
			</g>
		</g>
		<g>
			<g>
				<path class="st14" d="M6.14,49.25c1.93,0,1.93-3,0-3C4.21,46.25,4.21,49.25,6.14,49.25L6.14,49.25z"/>
			</g>
		</g>
		<g>
			<g>
				<path class="st14" d="M81.63,50.48c1.93,0,1.93-3,0-3C79.7,47.48,79.69,50.48,81.63,50.48L81.63,50.48z"/>
			</g>
		</g>
	</g>
	<g class="st9">
		<g>
			<path class="st14" d="M727.36,264.11c0.27-0.14,0.54-0.28,0.81-0.43c0.17-0.09,0.32-0.22,0.42-0.39
				c0.13-0.14,0.22-0.31,0.27-0.51c0.06-0.2,0.07-0.4,0.03-0.6c-0.01-0.2-0.07-0.39-0.18-0.56c-0.08-0.1-0.16-0.2-0.23-0.3
				c-0.19-0.19-0.41-0.31-0.66-0.39c-0.13-0.02-0.27-0.04-0.4-0.05c-0.27,0-0.52,0.07-0.76,0.2c-0.27,0.14-0.54,0.28-0.81,0.43
				c-0.17,0.09-0.32,0.22-0.42,0.39c-0.13,0.14-0.22,0.31-0.27,0.51c-0.06,0.2-0.07,0.4-0.03,0.6c0.01,0.2,0.07,0.39,0.18,0.56
				c0.08,0.1,0.16,0.2,0.23,0.3c0.19,0.19,0.41,0.31,0.66,0.39c0.13,0.02,0.27,0.04,0.4,0.05
				C726.87,264.32,727.12,264.25,727.36,264.11L727.36,264.11z"/>
		</g>
	</g>
	<g class="st9">
		<g>
			<path class="st14" d="M736.81,244.53c1.93,0,1.93-3,0-3C734.88,241.53,734.87,244.53,736.81,244.53L736.81,244.53z"/>
		</g>
	</g>
	<g class="st9">
		<g>
			<path class="st14" d="M751.17,220.74c1.93,0,1.93-3,0-3C749.24,217.74,749.23,220.74,751.17,220.74L751.17,220.74z"/>
		</g>
	</g>
	<g class="st9">
		<g>
			<path class="st14" d="M779.3,192.4c0.41-0.41,0.82-0.82,1.23-1.23c0.15-0.14,0.25-0.3,0.31-0.48c0.09-0.18,0.14-0.37,0.13-0.58
				c0.01-0.21-0.04-0.4-0.13-0.58c-0.06-0.19-0.16-0.35-0.31-0.48c-0.1-0.08-0.2-0.16-0.3-0.23c-0.23-0.14-0.49-0.2-0.76-0.2
				c-0.13,0.02-0.27,0.04-0.4,0.05c-0.25,0.07-0.47,0.2-0.66,0.39c-0.41,0.41-0.82,0.82-1.23,1.23c-0.15,0.14-0.25,0.3-0.31,0.48
				c-0.09,0.18-0.14,0.37-0.13,0.58c-0.01,0.21,0.04,0.4,0.13,0.58c0.06,0.19,0.16,0.35,0.31,0.48c0.1,0.08,0.2,0.16,0.3,0.23
				c0.23,0.14,0.49,0.2,0.76,0.2c0.13-0.02,0.27-0.04,0.4-0.05C778.9,192.71,779.12,192.58,779.3,192.4L779.3,192.4z"/>
		</g>
	</g>
	<g class="st9">
		<g>
			<path class="st14" d="M791.78,179.3c1.93,0,1.93-3,0-3C789.85,176.3,789.85,179.3,791.78,179.3L791.78,179.3z"/>
		</g>
	</g>
	<g class="st9">
		<g>
			<path class="st14" d="M800.81,155.5c1.93,0,1.93-3,0-3C798.88,152.5,798.87,155.5,800.81,155.5L800.81,155.5z"/>
		</g>
	</g>
	<g class="st9">
		<g>
			<path class="st14" d="M809.01,136.63c1.93,0,1.93-3,0-3C807.08,133.63,807.08,136.63,809.01,136.63L809.01,136.63z"/>
		</g>
	</g>
	<g class="st9">
		<g>
			<path class="st14" d="M817.22,125.97c1.93,0,1.93-3,0-3C815.29,122.97,815.28,125.97,817.22,125.97L817.22,125.97z"/>
		</g>
	</g>
	<g class="st9">
		<g>
			<path class="st14" d="M763.23,232.34c0.13-0.41,0.27-0.82,0.4-1.23c0.06-0.2,0.07-0.4,0.03-0.6c-0.01-0.2-0.07-0.39-0.18-0.56
				c-0.09-0.17-0.22-0.32-0.39-0.42c-0.14-0.13-0.31-0.22-0.51-0.27c-0.13-0.02-0.27-0.04-0.4-0.05c-0.27,0-0.52,0.07-0.76,0.2
				c-0.1,0.08-0.2,0.16-0.3,0.23c-0.19,0.19-0.31,0.41-0.39,0.66c-0.13,0.41-0.27,0.82-0.4,1.23c-0.06,0.2-0.07,0.4-0.03,0.6
				c0.01,0.2,0.07,0.39,0.18,0.56c0.09,0.17,0.22,0.32,0.39,0.42c0.14,0.13,0.31,0.22,0.51,0.27c0.13,0.02,0.27,0.04,0.4,0.05
				c0.27,0,0.52-0.07,0.76-0.2c0.1-0.08,0.2-0.16,0.3-0.23C763.03,232.81,763.16,232.59,763.23,232.34L763.23,232.34z"/>
		</g>
	</g>
	<g class="st9">
		<g>
			<path class="st14" d="M763.88,225.25c1.93,0,1.93-3,0-3C761.95,222.25,761.95,225.25,763.88,225.25L763.88,225.25z"/>
		</g>
	</g>
	<g class="st9">
		<g>
			<path class="st14" d="M766.05,223.3c0.41-0.82,0.83-1.64,1.24-2.46c0.18-0.36,0.26-0.76,0.15-1.16c-0.1-0.35-0.36-0.73-0.69-0.9
				c-0.35-0.18-0.77-0.28-1.16-0.15c-0.36,0.12-0.72,0.34-0.9,0.69c-0.41,0.82-0.83,1.64-1.24,2.46c-0.18,0.36-0.26,0.76-0.15,1.16
				c0.1,0.35,0.36,0.73,0.69,0.9c0.35,0.18,0.77,0.28,1.16,0.15C765.51,223.87,765.88,223.65,766.05,223.3L766.05,223.3z"/>
		</g>
	</g>
	<g class="st9">
		<g>
			<path class="st14" d="M771.27,220.74c0.14,0,0.27,0,0.41,0c0.21,0.01,0.4-0.04,0.58-0.13c0.19-0.06,0.35-0.16,0.48-0.31
				c0.15-0.14,0.25-0.3,0.31-0.48c0.09-0.18,0.14-0.37,0.13-0.58c-0.02-0.13-0.04-0.27-0.05-0.4c-0.07-0.25-0.2-0.47-0.39-0.66
				c-0.1-0.08-0.2-0.16-0.3-0.23c-0.23-0.14-0.49-0.2-0.76-0.2c-0.14,0-0.27,0-0.41,0c-0.21-0.01-0.4,0.04-0.58,0.13
				c-0.19,0.06-0.35,0.16-0.48,0.31c-0.15,0.14-0.25,0.3-0.31,0.48c-0.09,0.18-0.14,0.37-0.13,0.58c0.02,0.13,0.04,0.27,0.05,0.4
				c0.07,0.25,0.2,0.47,0.39,0.66c0.1,0.08,0.2,0.16,0.3,0.23C770.75,220.67,771,220.73,771.27,220.74L771.27,220.74z"/>
		</g>
	</g>
	<g class="st9">
		<g>
			<path class="st14" d="M793.83,195.71c1.93,0,1.93-3,0-3C791.9,192.71,791.9,195.71,793.83,195.71L793.83,195.71z"/>
		</g>
	</g>
	<g class="st9">
		<g>
			<path class="st14" d="M795.74,184.36c0-0.14,0-0.27,0-0.41c0.01-0.21-0.04-0.4-0.13-0.58c-0.06-0.19-0.16-0.35-0.31-0.48
				c-0.14-0.15-0.3-0.25-0.48-0.31c-0.18-0.09-0.37-0.14-0.58-0.13c-0.13,0.02-0.27,0.04-0.4,0.05c-0.25,0.07-0.47,0.2-0.66,0.39
				c-0.08,0.1-0.16,0.2-0.23,0.3c-0.14,0.23-0.2,0.49-0.2,0.76c0,0.14,0,0.27,0,0.41c-0.01,0.21,0.04,0.4,0.13,0.58
				c0.06,0.19,0.16,0.35,0.31,0.48c0.14,0.15,0.3,0.25,0.48,0.31c0.18,0.09,0.37,0.14,0.58,0.13c0.13-0.02,0.27-0.04,0.4-0.05
				c0.25-0.07,0.47-0.2,0.66-0.39c0.08-0.1,0.16-0.2,0.23-0.3C795.67,184.89,795.74,184.63,795.74,184.36L795.74,184.36z"/>
		</g>
	</g>
	<g class="st9">
		<g>
			<path class="st14" d="M798.62,178.62c0-0.14,0-0.27,0-0.41c0.01-0.21-0.04-0.4-0.13-0.58c-0.06-0.19-0.16-0.35-0.31-0.48
				c-0.14-0.15-0.3-0.25-0.48-0.31c-0.18-0.09-0.37-0.14-0.58-0.13c-0.13,0.02-0.27,0.04-0.4,0.05c-0.25,0.07-0.47,0.2-0.66,0.39
				c-0.08,0.1-0.16,0.2-0.23,0.3c-0.14,0.23-0.2,0.49-0.2,0.76c0,0.14,0,0.27,0,0.41c-0.01,0.21,0.04,0.4,0.13,0.58
				c0.06,0.19,0.16,0.35,0.31,0.48c0.14,0.15,0.3,0.25,0.48,0.31c0.18,0.09,0.37,0.14,0.58,0.13c0.13-0.02,0.27-0.04,0.4-0.05
				c0.25-0.07,0.47-0.2,0.66-0.39c0.08-0.1,0.16-0.2,0.23-0.3C798.55,179.14,798.61,178.89,798.62,178.62L798.62,178.62z"/>
		</g>
	</g>
	<g class="st9">
		<g>
			<path class="st14" d="M808.19,169.04c1.93,0,1.93-3,0-3C806.26,166.04,806.26,169.04,808.19,169.04L808.19,169.04z"/>
		</g>
	</g>
	<g class="st9">
		<g>
			<path class="st14" d="M813.12,143.61c1.93,0,1.93-3,0-3C811.18,140.61,811.18,143.61,813.12,143.61L813.12,143.61z"/>
		</g>
	</g>
	<path class="st6" d="M132.28,176.9c-0.79,2.7,0.96,5.8,3.59,6.79c2.64,0.99,5.81-0.02,7.62-2.17c1.82-2.15,2.32-5.25,1.58-7.97
		c-0.31-1.15-0.87-2.29-1.87-2.93c-0.8-0.51-1.77-0.63-2.71-0.73c-2.05-0.21-4.24-0.3-6.02,0.72c-1.78,1.03-2.81,3.59-1.55,5.21"/>
	<g class="st9">
		<path class="st10" d="M-14,195.05c11.85-3.75,23.35-8.5,34.21-14.47c5.44-2.95,10.72-6.19,15.82-9.69
			c5.1-3.5,10.05-7.22,14.77-11.22c4.75-3.96,9.32-8.14,13.66-12.58l6.49-6.69c2.15-2.24,4.3-4.49,6.53-6.67
			c4.46-4.34,9.11-8.54,14.33-12c1.3-0.88,2.63-1.65,3.67-2.73c0.52-0.53,0.95-1.14,1.15-1.79c0.22-0.65,0.12-1.34-0.2-1.92
			c-0.69-1.17-2.19-1.88-3.46-2.71c-1.28-0.85-2.68-1.52-4.03-2.25c-5.54-2.71-11.47-4.51-17.5-5.84
			c-6.03-1.35-12.17-2.25-18.31-3.24c-6.14-0.96-12.31-2.07-18.38-3.59c-6.08-1.49-12.02-3.45-17.9-5.53
			C10.99,90,5.18,87.74-0.55,85.28c-5.73-2.45-11.41-4.99-17.09-7.51c-5.67-2.52-11.31-5.12-17.31-6.53
			c-2.99-0.69-6.06-1.11-9.14-1.03c-3.08,0.06-6.13,0.74-9.16,1.42l-0.05-0.19c2.99-0.82,6.02-1.64,9.17-1.85
			c3.13-0.22,6.3,0.04,9.38,0.67c6.17,1.26,12,3.67,17.72,6.09c11.46,4.83,22.89,9.69,34.56,13.84c5.84,2.07,11.75,3.9,17.73,5.45
			c5.98,1.57,12.04,2.73,18.17,3.76c6.12,1.04,12.28,2.06,18.36,3.55c6.08,1.43,12.07,3.51,17.63,6.41c1.36,0.79,2.76,1.5,4.05,2.4
			c0.65,0.44,1.32,0.84,1.96,1.31c0.64,0.47,1.3,1.03,1.73,1.81c0.42,0.78,0.51,1.76,0.2,2.59c-0.29,0.83-0.81,1.5-1.38,2.07
			c-1.14,1.16-2.55,1.95-3.82,2.79c-2.59,1.69-5.07,3.55-7.43,5.55c-2.37,2-4.6,4.16-6.79,6.35c-4.39,4.38-8.49,9.06-12.71,13.64
			c-4.22,4.58-8.69,8.97-13.39,13.08c-18.89,16.36-41.68,28.22-65.82,34.31L-14,195.05z"/>
	</g>
	<g class="st9">
		<g>
			<g>
				<path class="st10" d="M621.26,61.35c1.03-0.62,2.05-1.23,3.08-1.85c0.33-0.2,0.59-0.53,0.69-0.9c0.1-0.36,0.05-0.84-0.15-1.16
					c-0.21-0.32-0.51-0.6-0.9-0.69c-0.39-0.09-0.8-0.06-1.16,0.15c-1.03,0.62-2.05,1.23-3.08,1.85c-0.33,0.2-0.59,0.53-0.69,0.9
					c-0.1,0.36-0.05,0.84,0.15,1.16c0.21,0.32,0.51,0.6,0.9,0.69C620.49,61.59,620.91,61.56,621.26,61.35L621.26,61.35z"/>
			</g>
		</g>
		<g>
			<g>
				<path class="st10" d="M631.03,52.2c0.62-0.82,1.23-1.64,1.85-2.46c0.11-0.17,0.17-0.36,0.18-0.56c0.04-0.2,0.04-0.4-0.03-0.6
					c-0.1-0.35-0.36-0.73-0.69-0.9c-0.35-0.18-0.77-0.28-1.16-0.15c-0.12,0.05-0.24,0.1-0.36,0.15c-0.23,0.13-0.4,0.31-0.54,0.54
					c-0.62,0.82-1.23,1.64-1.85,2.46c-0.11,0.17-0.17,0.36-0.18,0.56c-0.04,0.2-0.04,0.4,0.03,0.6c0.1,0.35,0.36,0.72,0.69,0.9
					c0.35,0.18,0.77,0.28,1.16,0.15c0.12-0.05,0.24-0.1,0.36-0.15C630.71,52.6,630.89,52.42,631.03,52.2L631.03,52.2z"/>
			</g>
		</g>
		<g>
			<g>
				<path class="st10" d="M644.33,40.19c0.82-1.03,1.64-2.05,2.46-3.08c0.15-0.14,0.25-0.3,0.31-0.48c0.09-0.18,0.14-0.37,0.13-0.58
					c0-0.37-0.16-0.81-0.44-1.06c-0.29-0.26-0.66-0.46-1.06-0.44c-0.37,0.02-0.82,0.14-1.06,0.44c-0.82,1.03-1.64,2.05-2.46,3.08
					c-0.15,0.14-0.25,0.3-0.31,0.48c-0.09,0.18-0.14,0.37-0.13,0.58c0,0.37,0.16,0.81,0.44,1.06c0.29,0.26,0.66,0.46,1.06,0.44
					C643.64,40.62,644.09,40.5,644.33,40.19L644.33,40.19z"/>
			</g>
		</g>
		<g>
			<g>
				<path class="st10" d="M625.87,73.42c0.82-1.03,1.64-2.05,2.46-3.08c0.15-0.14,0.25-0.3,0.31-0.48c0.09-0.18,0.14-0.37,0.13-0.58
					c0-0.37-0.16-0.81-0.44-1.06c-0.29-0.26-0.66-0.46-1.06-0.44c-0.37,0.02-0.82,0.14-1.06,0.44c-0.82,1.03-1.64,2.05-2.46,3.08
					c-0.15,0.14-0.25,0.3-0.31,0.48c-0.09,0.18-0.14,0.37-0.13,0.58c0,0.37,0.16,0.81,0.44,1.06c0.29,0.26,0.66,0.46,1.06,0.44
					C625.18,73.85,625.63,73.73,625.87,73.42L625.87,73.42z"/>
			</g>
		</g>
		<g>
			<g>
				<path class="st10" d="M637.56,60.5c0.82-1.03,1.64-2.05,2.46-3.08c0.15-0.14,0.25-0.3,0.31-0.48c0.09-0.18,0.14-0.37,0.13-0.58
					c0-0.37-0.16-0.81-0.44-1.06c-0.29-0.26-0.66-0.46-1.06-0.44c-0.37,0.02-0.82,0.14-1.06,0.44c-0.82,1.03-1.64,2.05-2.46,3.08
					c-0.15,0.14-0.25,0.3-0.31,0.48c-0.09,0.18-0.14,0.37-0.13,0.58c0,0.37,0.16,0.81,0.44,1.06c0.29,0.26,0.66,0.46,1.06,0.44
					C636.87,60.92,637.32,60.81,637.56,60.5L637.56,60.5z"/>
			</g>
		</g>
		<g>
			<g>
				<path class="st10" d="M646.35,49.86c1.93,0,1.93-3,0-3C644.42,46.86,644.41,49.86,646.35,49.86L646.35,49.86z"/>
			</g>
		</g>
		<g>
			<g>
				<path class="st10" d="M657.87,33.42c0.62-0.62,1.23-1.23,1.85-1.85c0.27-0.27,0.44-0.68,0.44-1.06c0.01-0.21-0.04-0.4-0.13-0.58
					c-0.06-0.19-0.16-0.35-0.31-0.48c-0.29-0.26-0.66-0.46-1.06-0.44c-0.4,0.02-0.77,0.15-1.06,0.44c-0.62,0.62-1.23,1.23-1.85,1.85
					c-0.27,0.27-0.44,0.68-0.44,1.06c-0.01,0.21,0.04,0.4,0.13,0.58c0.06,0.19,0.16,0.35,0.31,0.48c0.29,0.26,0.66,0.46,1.06,0.44
					C657.21,33.85,657.58,33.71,657.87,33.42L657.87,33.42z"/>
			</g>
		</g>
		<g>
			<g>
				<path class="st10" d="M667.15,21.77c0.82-1.03,1.64-2.05,2.46-3.08c0.15-0.14,0.25-0.3,0.31-0.48c0.09-0.18,0.14-0.37,0.13-0.58
					c0-0.37-0.16-0.81-0.44-1.06c-0.29-0.26-0.66-0.46-1.06-0.44c-0.37,0.02-0.82,0.14-1.06,0.44c-0.82,1.03-1.64,2.05-2.46,3.08
					c-0.15,0.14-0.25,0.3-0.31,0.48c-0.09,0.18-0.14,0.37-0.13,0.58c0,0.37,0.16,0.81,0.44,1.06c0.29,0.26,0.66,0.46,1.06,0.44
					C666.46,22.2,666.91,22.08,667.15,21.77L667.15,21.77z"/>
			</g>
		</g>
		<g>
			<g>
				<path class="st10" d="M625.87,90.04c1.44-1.64,2.87-3.28,4.31-4.92c0.26-0.3,0.44-0.65,0.44-1.06c0-0.37-0.16-0.81-0.44-1.06
					c-0.57-0.52-1.57-0.63-2.12,0c-1.44,1.64-2.87,3.28-4.31,4.92c-0.26,0.3-0.44,0.65-0.44,1.06c0,0.37,0.16,0.81,0.44,1.06
					C624.31,90.56,625.32,90.67,625.87,90.04L625.87,90.04z"/>
			</g>
		</g>
		<g>
			<g>
				<path class="st10" d="M642.48,73.42c0.82-1.03,1.64-2.05,2.46-3.08c0.15-0.14,0.25-0.3,0.31-0.48c0.09-0.18,0.14-0.37,0.13-0.58
					c0-0.37-0.16-0.81-0.44-1.06c-0.29-0.26-0.66-0.46-1.06-0.44c-0.37,0.02-0.82,0.14-1.06,0.44c-0.82,1.03-1.64,2.05-2.46,3.08
					c-0.15,0.14-0.25,0.3-0.31,0.48c-0.09,0.18-0.14,0.37-0.13,0.58c0,0.37,0.16,0.81,0.44,1.06c0.29,0.26,0.66,0.46,1.06,0.44
					C641.79,73.85,642.24,73.73,642.48,73.42L642.48,73.42z"/>
			</g>
		</g>
		<g>
			<g>
				<path class="st10" d="M653.56,56.81c0.82-1.03,1.64-2.05,2.46-3.08c0.15-0.14,0.25-0.3,0.31-0.48c0.09-0.18,0.14-0.37,0.13-0.58
					c0-0.37-0.16-0.81-0.44-1.06c-0.29-0.26-0.66-0.46-1.06-0.44c-0.37,0.02-0.82,0.14-1.06,0.44c-0.82,1.03-1.64,2.05-2.46,3.08
					c-0.15,0.14-0.25,0.3-0.31,0.48c-0.09,0.18-0.14,0.37-0.13,0.58c0,0.37,0.16,0.81,0.44,1.06c0.29,0.26,0.66,0.46,1.06,0.44
					C652.87,57.23,653.32,57.11,653.56,56.81L653.56,56.81z"/>
			</g>
		</g>
		<g>
			<g>
				<path class="st10" d="M664.87,42.35c0.41-0.82,0.82-1.64,1.23-2.46c0.18-0.36,0.26-0.76,0.15-1.16c-0.1-0.35-0.36-0.72-0.69-0.9
					c-0.35-0.18-0.77-0.28-1.16-0.15c-0.36,0.12-0.72,0.34-0.9,0.69c-0.41,0.82-0.82,1.64-1.23,2.46c-0.18,0.36-0.26,0.76-0.15,1.16
					c0.1,0.35,0.36,0.72,0.69,0.9c0.35,0.18,0.77,0.28,1.16,0.15C664.33,42.93,664.7,42.7,664.87,42.35L664.87,42.35z"/>
			</g>
		</g>
		<g>
			<g>
				<path class="st10" d="M674.25,30.3c0.41-1.03,0.82-2.05,1.23-3.08c0.14-0.34,0.02-0.86-0.15-1.16c-0.18-0.31-0.54-0.61-0.9-0.69
					c-0.38-0.09-0.82-0.07-1.16,0.15c-0.1,0.08-0.2,0.16-0.3,0.23c-0.19,0.19-0.31,0.41-0.39,0.66c-0.41,1.03-0.82,2.05-1.23,3.08
					c-0.14,0.34-0.02,0.86,0.15,1.16c0.18,0.31,0.54,0.61,0.9,0.69c0.38,0.09,0.82,0.07,1.16-0.15c0.1-0.08,0.2-0.16,0.3-0.23
					C674.05,30.78,674.18,30.56,674.25,30.3L674.25,30.3z"/>
			</g>
		</g>
		<g>
			<g>
				<path class="st10" d="M683.48,17.38c0.41-1.03,0.82-2.05,1.23-3.08c0.14-0.34,0.02-0.86-0.15-1.16
					c-0.18-0.31-0.54-0.61-0.9-0.69c-0.38-0.09-0.82-0.07-1.16,0.15c-0.1,0.08-0.2,0.16-0.3,0.23c-0.19,0.19-0.31,0.41-0.39,0.66
					c-0.41,1.03-0.82,2.05-1.23,3.08c-0.14,0.34-0.02,0.86,0.15,1.16c0.18,0.31,0.54,0.61,0.9,0.69c0.38,0.09,0.82,0.07,1.16-0.15
					c0.1-0.08,0.2-0.16,0.3-0.23C683.28,17.85,683.41,17.63,683.48,17.38L683.48,17.38z"/>
			</g>
		</g>
		<g>
			<g>
				<path class="st10" d="M640.64,88.81c1.85-2.26,3.69-4.51,5.54-6.77c0.5-0.61,0.64-1.54,0-2.12c-0.55-0.5-1.59-0.65-2.12,0
					c-1.85,2.26-3.69,4.51-5.54,6.77c-0.5,0.61-0.64,1.54,0,2.12C639.07,89.31,640.11,89.46,640.64,88.81L640.64,88.81z"/>
			</g>
		</g>
		<g>
			<g>
				<path class="st10" d="M654.79,69.73c0.82-0.82,1.64-1.64,2.46-2.46c0.27-0.27,0.44-0.68,0.44-1.06c0-0.37-0.16-0.81-0.44-1.06
					c-0.29-0.26-0.66-0.46-1.06-0.44c-0.4,0.02-0.77,0.15-1.06,0.44c-0.82,0.82-1.64,1.64-2.46,2.46c-0.27,0.27-0.44,0.68-0.44,1.06
					c0,0.37,0.16,0.81,0.44,1.06c0.29,0.26,0.66,0.46,1.06,0.44C654.13,70.15,654.5,70.02,654.79,69.73L654.79,69.73z"/>
			</g>
		</g>
		<g>
			<g>
				<path class="st10" d="M663.58,59.09c1.93,0,1.93-3,0-3C661.65,56.09,661.64,59.09,663.58,59.09L663.58,59.09z"/>
			</g>
		</g>
		<g>
			<g>
				<path class="st10" d="M671.58,49.25c1.93,0,1.93-3,0-3C669.65,46.25,669.64,49.25,671.58,49.25L671.58,49.25z"/>
			</g>
		</g>
		<g>
			<g>
				<path class="st10" d="M677.12,40.63c1.93,0,1.93-3,0-3C675.18,37.63,675.18,40.63,677.12,40.63L677.12,40.63z"/>
			</g>
		</g>
		<g>
			<g>
				<path class="st10" d="M655.64,81.12c0.62-1.23,1.23-2.46,1.85-3.69c0.18-0.36,0.26-0.76,0.15-1.16c-0.1-0.35-0.36-0.72-0.69-0.9
					c-0.35-0.18-0.77-0.28-1.16-0.15c-0.36,0.12-0.72,0.34-0.9,0.69c-0.62,1.23-1.23,2.46-1.85,3.69c-0.18,0.36-0.26,0.76-0.15,1.16
					c0.1,0.35,0.36,0.72,0.69,0.9c0.35,0.18,0.77,0.28,1.16,0.15C655.1,81.69,655.47,81.47,655.64,81.12L655.64,81.12z"/>
			</g>
		</g>
		<g>
			<g>
				<path class="st10" d="M664.19,69.56c1.93,0,1.93-3,0-3C662.26,66.56,662.26,69.56,664.19,69.56L664.19,69.56z"/>
			</g>
		</g>
		<g>
			<g>
				<path class="st10" d="M669.12,63.4c1.93,0,1.93-3,0-3C667.18,60.4,667.18,63.4,669.12,63.4L669.12,63.4z"/>
			</g>
		</g>
		<g>
			<g>
				<path class="st10" d="M674.65,56.63c1.93,0,1.93-3,0-3C672.72,53.63,672.72,56.63,674.65,56.63L674.65,56.63z"/>
			</g>
		</g>
		<g>
			<g>
				<path class="st10" d="M666.1,82.35c1.03-1.44,2.05-2.87,3.08-4.31c0.21-0.3,0.25-0.81,0.15-1.16c-0.1-0.35-0.36-0.72-0.69-0.9
					c-0.35-0.18-0.77-0.28-1.16-0.15c-0.39,0.13-0.66,0.36-0.9,0.69c-1.03,1.44-2.05,2.87-3.08,4.31c-0.21,0.3-0.25,0.81-0.15,1.16
					c0.1,0.35,0.36,0.72,0.69,0.9c0.35,0.18,0.77,0.28,1.16,0.15C665.6,82.91,665.86,82.69,666.1,82.35L666.1,82.35z"/>
			</g>
		</g>
		<g>
			<g>
				<path class="st10" d="M677.37,68.3c0.62-1.23,1.24-2.46,1.86-3.68c0.18-0.36,0.26-0.76,0.15-1.16c-0.1-0.35-0.36-0.73-0.69-0.9
					c-0.35-0.18-0.77-0.28-1.16-0.15c-0.36,0.12-0.72,0.34-0.9,0.69c-0.62,1.23-1.24,2.46-1.86,3.68c-0.18,0.36-0.26,0.76-0.15,1.16
					c0.1,0.35,0.36,0.73,0.69,0.9c0.35,0.18,0.77,0.28,1.16,0.15C676.84,68.87,677.2,68.64,677.37,68.3L677.37,68.3z"/>
			</g>
		</g>
		<g>
			<g>
				<path class="st10" d="M684.63,59.02c0.61-0.82,1.23-1.64,1.84-2.46c0.11-0.17,0.17-0.36,0.18-0.56c0.04-0.2,0.04-0.4-0.03-0.6
					c-0.1-0.35-0.36-0.73-0.69-0.9c-0.35-0.18-0.77-0.28-1.16-0.15c-0.12,0.05-0.24,0.1-0.36,0.15c-0.23,0.13-0.4,0.31-0.54,0.54
					c-0.61,0.82-1.23,1.64-1.84,2.46c-0.11,0.17-0.17,0.36-0.18,0.56c-0.04,0.2-0.04,0.4,0.03,0.6c0.1,0.35,0.36,0.73,0.69,0.9
					c0.35,0.18,0.77,0.28,1.16,0.15c0.12-0.05,0.24-0.1,0.36-0.15C684.32,59.42,684.5,59.24,684.63,59.02L684.63,59.02z"/>
			</g>
		</g>
	</g>
	<path class="st15" d="M648.51,303.6c10.04-1.77,20.32,0.02,30.44,1.29c10.6,1.33,21.25,2.11,31.9,2.88
		c10.26,0.74,20.52,1.49,30.8,1.67c6.62,0.12,13.29,0.01,19.8,1.18c6.51,1.18,12.73,3.62,19.19,5.06c6.28,1.4,12.77,1.83,19.19,1.29
		c2.13-0.18,5.09,0.2,5.19,2.33"/>
	<path class="st15" d="M672.51,294.31c17.86,2.25,35.71,4.5,53.57,6.75c7.02,0.88,14.04,1.77,21.09,2.33
		c6.91,0.55,13.85,0.8,20.78,0.73c5.1-0.05,10.26-0.26,15.24,0.84c3.16,0.7,6.17,1.91,9.3,2.72c6.52,1.7,13.48,1.68,19.75,4.14
		c0.49,0.19,1.01,0.44,1.23,0.92c0.21,0.48-0.16,1.19-0.67,1.08"/>
	<path class="st15" d="M713.06,283.94c18.05,3.25,36.1,6.51,54.15,9.76c8.8,1.59,17.61,3.18,26.29,5.34
		c7.1,1.77,14.1,3.92,21.09,6.07c4.5,1.38,9.12,2.83,12.76,5.8"/>
	<path class="st15" d="M738.05,282.74c20.44,1.02,40.78,3.75,60.76,8.17c4.53,1,9.08,2.1,13.25,4.13c2.64,1.28,5.16,2.95,8.02,3.6
		c3.25,0.74,6.65,0.11,9.96,0.49c0.49,0.06,1.08,0.22,1.2,0.7c0.12,0.48-0.83,0.78-0.81,0.28"/>
	<path class="st15" d="M754.31,273.61c14.93,2.22,29.93,3.94,44.97,5.14c10.04,0.8,20.7,1.58,28.83,7.52
		c3.34,2.44,6.94,5.88,10.92,4.77"/>
	<path class="st15" d="M783.41,267.66c7.67,1.83,15.38,3.66,23.24,4.16c5.58,0.36,11.34,0.07,16.58,2.03
		c3.1,1.16,5.87,3.06,8.91,4.38c2.68,1.16,5.55,1.87,8.46,2.08"/>
	<path class="st15" d="M798.76,262.69c7.28,2.97,14.61,5.95,22.29,7.59c4.08,0.87,8.24,1.35,12.25,2.49c4.01,1.14,7.95,3,10.7,6.14"
		/>
	<path class="st15" d="M810.96,261.99c3.96,1.82,8.4,2.2,12.7,2.89c4.3,0.69,8.75,1.82,11.97,4.76"/>
</g>
<text transform="matrix(1 0 0 1 223.1176 142.6211)" class="st16 st17 st18">秋日購物全館九折</text>
</svg>
