<svg id="Capa_1" enable-background="new 0 0 512 512" height="300" viewBox="0 0 512 512" width="300" xmlns="http://www.w3.org/2000/svg"><g id="XMLID_1764_"><g id="XMLID_587_"><g id="XMLID_1962_"><path id="XMLID_1451_" d="m128.633 251.116h-11.753c-45.531 0-82.442 36.91-82.442 82.442 0 38.72 31.389 70.108 70.108 70.108h36.42c38.72 0 70.108-31.389 70.108-70.108.001-45.531-36.909-82.442-82.441-82.442z" fill="#ffcd69"/></g><g id="XMLID_2868_"><path id="XMLID_1438_" d="m338.816 361.241h89.579c40.651 0 73.605 32.954 73.605 73.605v67.154h-236.789v-67.154c0-40.651 32.954-73.605 73.605-73.605z" fill="#98eaf9"/></g><g id="XMLID_2864_"><path d="m383.605 393.11c13.493 0 24.431-10.938 24.431-24.431v-36.823h-48.861v36.823c0 13.493 10.938 24.431 24.43 24.431z" fill="#e5ae8c"/></g><g id="XMLID_2862_"><path d="m333.805 258.426v36.866c0 27.504 22.297 49.801 49.801 49.801 27.504 0 49.801-22.297 49.801-49.801v-36.866z" fill="#e5ae8c"/></g><g id="XMLID_2860_"><path id="XMLID_1429_" d="m80.1 367.147h85.313c38.715 0 70.1 31.385 70.1 70.1v64.753h-225.513v-64.753c0-38.715 31.385-70.1 70.1-70.1z" fill="#c193dc"/></g><g id="XMLID_2857_"><path d="m122.757 394.445c12.974 0 23.491-10.517 23.491-23.491v-35.407h-46.982v35.407c0 12.974 10.517 23.491 23.491 23.491z" fill="#efb789"/></g><g id="XMLID_2855_"><path d="m76.714 266.839v38.887c0 25.428 20.614 46.042 46.042 46.042 25.428 0 46.042-20.614 46.042-46.042v-38.887z" fill="#efb789"/></g><g id="XMLID_1848_"><g id="XMLID_2172_"><path id="XMLID_1413_" d="m322.714 502h-133.428v-60.842c0-7.914 6.416-14.329 14.329-14.329h104.77c7.914 0 14.329 6.415 14.329 14.329z" fill="#ffcd69"/></g><g id="XMLID_2171_"><path d="m308.62 426.829h-105.24v-45.807c0-7.914 6.416-14.33 14.33-14.33h76.581c7.914 0 14.329 6.416 14.329 14.33z" fill="#ff7d97"/></g></g><g id="XMLID_2282_"><path d="m327.605 254.241 56-123.038 56 123.038z" fill="#d5ea79"/></g><g id="XMLID_2324_"><path id="XMLID_1369_" d="m66.757 266.839 56-123.038 56 123.038z" fill="#98eaf9"/></g><g id="XMLID_2338_"><circle cx="191.667" cy="38" fill="#d5ea79" r="28"/></g><g id="XMLID_2337_"><circle id="XMLID_550_" cx="448" cy="64" fill="#ffcd69" r="21.742"/></g><g id="XMLID_2369_"><ellipse cx="31.742" cy="136.333" fill="#ff7d97" rx="21.742" ry="21.742" transform="matrix(.23 -.973 .973 .23 -108.237 135.904)"/></g></g><g id="XMLID_1454_"><path id="XMLID_1457_" d="m428.395 351.24h-10.359v-7.1c15.331-10.838 25.37-28.688 25.37-48.85v-31.809c1.864-.767 3.485-2.084 4.608-3.829 1.84-2.86 2.101-6.459.692-9.555l-56-123.038c-1.624-3.567-5.182-5.857-9.102-5.857-3.919 0-7.478 2.29-9.102 5.857l-56 123.038c-1.409 3.096-1.148 6.694.692 9.555 1.123 1.745 2.745 3.062 4.608 3.829v31.809c0 20.162 10.039 38.011 25.37 48.85v7.1h-10.359c-11.984 0-23.863 2.596-34.698 7.533-3.008-1.333-6.331-2.08-9.827-2.08h-28.288v-20.069c0-5.522-4.477-10-10-10s-10 4.478-10 10v20.069h-28.291c-.01 0-.019.001-.029.001 2.234-7.427 3.394-15.194 3.394-23.136 0-27.367-12.364-53.56-33.296-71.036l-55.92-122.863c-1.624-3.567-5.182-5.857-9.102-5.857-3.919 0-7.478 2.29-9.102 5.857l-55.919 122.863c-20.932 17.476-33.297 43.669-33.297 71.037 0 13.503 3.327 26.51 9.67 38.168-20.606 14.507-34.108 38.459-34.108 65.52v64.753c0 5.522 4.477 10 10 10h54.001c5.523 0 10-4.478 10-10s-4.477-10-10-10h-44.001v-54.753c0-33.14 26.961-60.101 60.1-60.101h9.749c2.914 15.518 16.557 27.299 32.908 27.299s29.993-11.781 32.907-27.299h9.749c9.816 0 19.382 2.377 27.967 6.899v35.048c-8.315 3.873-14.095 12.304-14.095 22.064v50.843h-25.286c-5.523 0-10 4.478-10 10s4.477 10 10 10h348c5.523 0 10-4.478 10-10v-67.154c.001-46.101-37.504-83.606-83.604-83.606zm-44.79-195.897 40.461 88.898h-80.923zm-39.8 108.898h79.602v31.05c0 21.946-17.854 39.802-39.801 39.802-21.946 0-39.801-17.855-39.801-39.802zm39.8 90.852c4.975 0 9.806-.621 14.431-1.771v15.358c0 7.957-6.474 14.431-14.431 14.431s-14.431-6.474-14.431-14.431v-15.358c4.625 1.15 9.456 1.771 14.431 1.771zm-184.319 86.065c0-2.387 1.942-4.329 4.33-4.329h104.77c2.387 0 4.33 1.942 4.33 4.329v50.842h-113.43zm95.004-64.466c2.387 0 4.329 1.942 4.329 4.329v35.808h-85.239v-35.808c0-2.387 1.942-4.329 4.329-4.329zm-171.533-34.924c-19.874 0-36.042-16.168-36.042-36.042v-28.887h72.084v28.887c0 19.874-16.169 36.042-36.042 36.042zm0-173.828 40.461 88.898h-80.923zm-70.989 194.398c-4.808-8.78-7.33-18.59-7.33-28.781 0-20.055 8.024-38.665 22.276-52.274v24.442c0 18.356 8.871 34.679 22.551 44.907v6.514h-9.165c-9.973.001-19.518 1.848-28.332 5.192zm70.989 22.107c-7.439 0-13.491-6.052-13.491-13.491v-10.839c4.324 1.073 8.84 1.652 13.491 1.652s9.167-.579 13.491-1.652v10.839c0 7.44-6.052 13.491-13.491 13.491zm33.491-27.298v-6.514c13.68-10.229 22.551-26.551 22.551-44.907v-24.443c14.253 13.61 22.276 32.221 22.276 52.276 0 10.181-2.517 19.983-7.317 28.758-8.997-3.404-18.58-5.17-28.345-5.17zm335.752 134.853h-159.286v-50.842c0-9.76-5.78-18.191-14.095-22.064v-38.073c0-2.149-.283-4.232-.809-6.218 6.717-2.343 13.835-3.563 21.005-3.563h10.464c1.316 17.793 16.202 31.87 34.326 31.87 18.123 0 33.01-14.077 34.325-31.87h10.464c35.072 0 63.605 28.533 63.605 63.605v57.155z"/><path id="XMLID_1483_" d="m246 291.62c0 2.63 1.07 5.21 2.93 7.08 1.86 1.859 4.44 2.92 7.07 2.92s5.21-1.06 7.07-2.92c1.86-1.87 2.93-4.44 2.93-7.08 0-2.63-1.07-5.21-2.93-7.07s-4.44-2.93-7.07-2.93-5.21 1.069-7.07 2.93c-1.86 1.86-2.93 4.44-2.93 7.07z"/><path id="XMLID_1484_" d="m308.965 75.342c-3.905 3.905-3.905 10.237 0 14.143 1.953 1.952 4.512 2.929 7.071 2.929s5.119-.977 7.071-2.929c10.589-10.59 10.589-27.819 0-38.409-1.352-1.352-2.097-3.149-2.097-5.062 0-1.912.744-3.71 2.096-5.062 3.905-3.905 3.906-10.236 0-14.142-3.904-3.903-10.236-3.903-14.142 0-5.13 5.129-7.955 11.949-7.955 19.204 0 7.254 2.825 14.074 7.954 19.204 2.794 2.791 2.794 7.333.002 10.124z"/><path id="XMLID_1486_" d="m228.442 174.792c1.352 1.352 2.097 3.149 2.097 5.061s-.745 3.71-2.096 5.061c-3.906 3.904-3.906 10.236-.002 14.142 1.953 1.953 4.512 2.93 7.072 2.93 2.559 0 5.118-.977 7.07-2.929 5.13-5.129 7.956-11.949 7.956-19.204 0-7.254-2.825-14.074-7.955-19.204-2.791-2.791-2.791-7.333 0-10.124 3.905-3.906 3.905-10.237 0-14.143-3.905-3.904-10.237-3.904-14.142 0-10.588 10.591-10.588 27.82 0 38.41z"/><path id="XMLID_1492_" d="m76.766 57.133c0 1.912-.744 3.71-2.096 5.062-3.905 3.905-3.906 10.236-.001 14.143 1.953 1.952 4.512 2.929 7.071 2.929s5.118-.977 7.071-2.929c5.13-5.129 7.955-11.949 7.955-19.204 0-7.254-2.825-14.074-7.954-19.204-1.353-1.352-2.097-3.149-2.097-5.062s.745-3.71 2.097-5.061c3.905-3.904 3.906-10.236.001-14.142-3.906-3.905-10.237-3.905-14.143-.001-5.13 5.129-7.955 11.949-7.955 19.204 0 7.254 2.825 14.074 7.954 19.204 1.352 1.351 2.097 3.149 2.097 5.061z"/><path id="XMLID_1495_" d="m191.666 76c20.953 0 38-17.047 38-38s-17.047-38-38-38-38 17.047-38 38 17.047 38 38 38zm0-56c9.925 0 18 8.075 18 18s-8.075 18-18 18-18-8.075-18-18 8.075-18 18-18z"/><path id="XMLID_1498_" d="m448 95.742c17.503 0 31.742-14.239 31.742-31.742s-14.239-31.742-31.742-31.742-31.742 14.239-31.742 31.742 14.239 31.742 31.742 31.742zm0-43.484c6.475 0 11.742 5.268 11.742 11.742s-5.267 11.742-11.742 11.742-11.742-5.268-11.742-11.742 5.267-11.742 11.742-11.742z"/><path id="XMLID_1501_" d="m31.742 168.075c17.503 0 31.743-14.239 31.743-31.742s-14.24-31.742-31.743-31.742-31.742 14.239-31.742 31.742 14.239 31.742 31.742 31.742zm0-43.484c6.475 0 11.743 5.268 11.743 11.742 0 6.475-5.268 11.742-11.743 11.742s-11.742-5.268-11.742-11.742c0-6.475 5.268-11.742 11.742-11.742z"/><path id="XMLID_1509_" d="m109 492c-2.63 0-5.21 1.069-7.07 2.93-1.86 1.86-2.93 4.44-2.93 7.07s1.07 5.21 2.93 7.069c1.86 1.86 4.44 2.931 7.07 2.931s5.21-1.07 7.07-2.931c1.86-1.859 2.93-4.439 2.93-7.069s-1.07-5.21-2.93-7.07c-1.86-1.861-4.44-2.93-7.07-2.93z"/></g></g></svg>