<svg id="Layer_1" enable-background="new 0 0 511.138 511.138" height="32" viewBox="0 0 511.138 511.138" width="32" xmlns="http://www.w3.org/2000/svg"><g><path d="m511.138 378.596s-55.411-94.852-70.073-120h43.612l-70-95.049h32.539l-87.216-138.09-87.215 138.09h32.539l-22.094 30h-132.907l-150.092 292.134h489.339l-55.018-107.085zm-52.273-30h-39.726l-46.24-90h33.446c1.775 3.051 46.27 79.302 52.52 90zm-131.65-215.049 32.785-51.91 32.785 51.91h-.203-65.164zm15.367 30h34.836l47.906 65.049-67.861-.044-17.985-35.006h-18.99zm-77.337 292.134h-93.07v-181.149zm-123.07-180.628v180.628h-92.803zm156.797 180.628-119.265-232.134h141.457l119.266 232.134z"/><path d="m75 178.547c41.355 0 75-33.645 75-75s-33.645-75-75-75-75 33.645-75 75 33.645 75 75 75zm0-120c24.813 0 45 20.187 45 45s-20.187 45-45 45-45-20.187-45-45 20.187-45 45-45z"/></g></svg>