<svg height="512" viewBox="0 0 64 64" width="512" xmlns="http://www.w3.org/2000/svg"><g id="Icons"><g><g><path d="m54 60h-36v-4h36c1.103 0 2-.897 2-2s-.897-2-2-2h-16c-3.309 0-6-2.691-6-6s2.691-6 6-6h8v4h-8c-1.103 0-2 .897-2 2s.897 2 2 2h16c3.309 0 6 2.691 6 6s-2.691 6-6 6z" fill="#fab400"/></g><g><path d="m43.267 42.999c.346.598.992 1.001 1.733 1.001.364 0 .706-.098 1-.268v-3.732h-4.465z" fill="#dc9600"/></g><g><path d="m60 18c0-7.732-6.268-14-14-14s-14 6.268-14 14c0 2.546.68 4.934 1.868 6.991l10.399 18.008h.001c.345.598.991 1.001 1.732 1.001s1.387-.403 1.732-1.001h.001l10.399-18.008c1.188-2.057 1.868-4.445 1.868-6.991z" fill="#00a0c8"/></g><g><circle cx="46" cy="19" fill="#0082aa" r="10"/></g><g><g><circle cx="46" cy="18" fill="#f0f0f0" r="10"/></g><g><g><path d="m52.695 20.669c.807-.814 1.305-1.933 1.305-3.169 0-2.485-2.015-4.5-4.5-4.5-1.414 0-2.675.652-3.5 1.672-.825-1.02-2.086-1.672-3.5-1.672-2.485 0-4.5 2.015-4.5 4.5 0 1.236.498 2.355 1.305 3.169l.013.013.001.001 5.972 6.022c.18.182.431.295.709.295s.529-.113.71-.296l5.972-6.022.001-.001z" fill="#d2d2d2"/></g></g><g><g><path d="m52.695 19.669c.807-.814 1.305-1.933 1.305-3.169 0-2.485-2.015-4.5-4.5-4.5-1.414 0-2.675.652-3.5 1.672-.825-1.02-2.086-1.672-3.5-1.672-2.485 0-4.5 2.015-4.5 4.5 0 1.236.498 2.355 1.305 3.169l.013.013.001.001 5.972 6.022c.18.182.431.295.709.295s.529-.113.71-.296l5.972-6.022.001-.001z" fill="#c80a50"/></g></g></g><g><path d="m32 34c0-7.732-6.268-14-14-14s-14 6.268-14 14c0 2.546.68 4.934 1.868 6.991l10.399 18.008h.001c.345.598.991 1.001 1.732 1.001s1.387-.403 1.732-1.001h.001l10.399-18.008c1.188-2.057 1.868-4.445 1.868-6.991z" fill="#00a0c8"/></g><g><circle cx="18" cy="35" fill="#0082aa" r="10"/></g><g><g><circle cx="18" cy="34" fill="#f0f0f0" r="10"/></g><g><g><path d="m24.695 36.669c.807-.814 1.305-1.933 1.305-3.169 0-2.485-2.015-4.5-4.5-4.5-1.414 0-2.675.652-3.5 1.672-.825-1.02-2.086-1.672-3.5-1.672-2.485 0-4.5 2.015-4.5 4.5 0 1.236.498 2.355 1.305 3.169l.013.013.001.001 5.972 6.022c.18.182.431.295.709.295s.529-.113.71-.296l5.972-6.022.001-.001z" fill="#d2d2d2"/></g></g><g><g><path d="m24.695 35.669c.807-.814 1.305-1.933 1.305-3.169 0-2.485-2.015-4.5-4.5-4.5-1.414 0-2.675.652-3.5 1.672-.825-1.02-2.086-1.672-3.5-1.672-2.485 0-4.5 2.015-4.5 4.5 0 1.236.498 2.355 1.305 3.169l.013.013.001.001 5.972 6.022c.18.182.431.295.709.295s.529-.113.71-.296l5.972-6.022.001-.001z" fill="#c80a50"/></g></g></g></g></g></svg>