<svg id="Layer_1" enable-background="new 0 0 464 464" height="512" viewBox="0 0 464 464" width="512" xmlns="http://www.w3.org/2000/svg"><circle cx="232" cy="232" fill="#ffe773" r="232"/><path d="m337.028 42.637c-24.475-3.713-49.363-3.496-73.522.543-.82.137-1.653.142-2.475.017-118.019-18.005-221.787 75.216-220.008 191.775.681 44.65 16.688 85.605 42.992 117.799.531.65.955 1.38 1.255 2.165 8.904 23.265 21.449 44.727 36.936 63.692 5.641 6.908-2.707 16.508-10.333 11.884-66.248-40.167-110.781-112.567-111.853-195.449-1.662-128.424 102.444-234.463 230.877-235.06 40.238-.187 78.113 9.871 111.165 27.72 7.854 4.24 3.79 16.253-5.034 14.914z" fill="#fff0a6"/><circle cx="232" cy="232" fill="#b49ef2" r="191"/><path d="m72.233 304.314c1.278 9.169-11.513 12.818-15.231 4.34-10.291-23.465-16.002-49.397-16.002-76.654 0-98.996 74.758-178.557 168.183-189.705 9.195-1.097 12.501 11.786 3.948 15.335-95.42 39.601-155.854 139.397-140.898 246.684z" fill="#c0b3ff"/><g fill="#eef7ff"><path d="m344.381 144.07h-63.427l-29.901-51.79c-8.467-14.665-29.63-14.679-38.105 0l-29.901 51.79h-63.427c-16.931 0-27.528 18.32-19.053 33l31.713 54.93-31.714 54.93c-8.465 14.661 2.101 33 19.053 33h63.427l29.901 51.79c8.467 14.664 29.63 14.681 38.105 0l29.901-51.79h63.427c16.931 0 27.528-18.32 19.053-33l-31.713-54.93 31.714-54.93c8.464-14.661-2.101-33-19.053-33zm-117.577-43.79c2.309-4 8.079-4.007 10.393 0l25.282 43.79h-60.957zm44.912 59.79 41.529 71.93-41.529 71.93h-79.432l-41.529-71.93 41.529-71.93zm-157.293 9c-2.313-4.006.578-9 5.196-9h54.19l-32.291 55.93zm5.196 134.86c-4.626 0-7.505-5.001-5.196-9l27.095-46.93 32.291 55.93zm117.577 59.79c-2.309 4-8.079 4.007-10.393 0l-25.282-43.79h60.957zm112.381-68.79c2.313 4.006-.578 9-5.196 9h-54.19l32.291-55.93zm0-125.86-27.095 46.93-32.291-55.93h54.19c4.626 0 7.505 5.001 5.196 9z"/><path d="m141.156 128.063c1.773 0 3.557-.586 5.041-1.792 10.417-8.465 21.974-15.321 34.351-20.376 4.09-1.671 6.051-6.341 4.38-10.432-1.671-4.09-6.339-6.052-10.431-4.381-13.834 5.651-26.75 13.313-38.391 22.772-5.815 4.727-2.47 14.209 5.05 14.209z"/><path d="m96.684 216.752c.489-4.391-2.674-8.347-7.065-8.836-4.4-.492-8.347 2.675-8.836 7.066-1.263 11.345-1.257 22.848.017 34.189.459 4.087 3.922 7.107 7.94 7.107 4.806 0 8.49-4.175 7.959-8.895-1.141-10.159-1.147-20.466-.015-30.631z"/><path d="m283.453 105.896c12.376 5.055 23.934 11.911 34.351 20.376 1.483 1.206 3.268 1.792 5.041 1.792 7.518 0 10.868-9.48 5.05-14.208-11.64-9.46-24.557-17.121-38.391-22.772-4.091-1.67-8.76.291-10.431 4.381-1.672 4.09.29 8.76 4.38 10.431z"/><path d="m180.547 358.104c-12.376-5.055-23.934-11.911-34.351-20.376-3.429-2.788-8.468-2.267-11.254 1.163-2.787 3.429-2.266 8.467 1.163 11.253 11.64 9.46 24.557 17.121 38.391 22.772 4.125 1.683 8.774-.325 10.431-4.381 1.672-4.09-.29-8.76-4.38-10.431z"/><path d="m317.803 337.729c-10.417 8.465-21.974 15.321-34.351 20.376-4.09 1.671-6.051 6.341-4.38 10.432 1.663 4.07 6.321 6.058 10.431 4.381 13.834-5.651 26.75-13.313 38.391-22.772 3.429-2.786 3.95-7.824 1.163-11.253-2.786-3.432-7.825-3.954-11.254-1.164z"/><path d="m383.218 214.982c-.488-4.392-4.44-7.546-8.836-7.066-4.391.489-7.554 4.445-7.065 8.836 1.131 10.165 1.126 20.472-.016 30.633-.494 4.391 2.666 8.35 7.056 8.844s8.35-2.666 8.844-7.057c1.274-11.342 1.28-22.845.017-34.19z"/></g></svg>