<svg id="Capa_1" enable-background="new 0 0 512 512" height="512" viewBox="0 0 512 512" width="512" xmlns="http://www.w3.org/2000/svg"><g><g><path d="m256 189.072c-11.84-11.62-27.47-18.01-44.08-18.01-16.81 0-32.62 6.55-44.51 18.44-24.55 24.54-24.55 64.48 0 89.02l77.98 77.99c2.93 2.93 6.77 4.39 10.61 4.39l45.701-130.065z" fill="#f69"/></g><path d="m196.002 16.652-13.081 46.712 26.661 39.568c21.28-3.33 36.72-21.46 36.72-43.11 0-26.76-23.88-47.3-50.3-43.17z" fill="#efaea1"/><path d="m59.84 245.982c21.65 0 39.78-15.44 43.11-36.72l-35.765-24.645-50.515 11.075c-4.12 26.38 16.38 50.29 43.17 50.29z" fill="#efaea1"/><path d="m16.67 195.692s81.13 14.62 86.28 13.57c4.59-29.35 15.15-49.01 36.23-70.1 21.08-21.08 41.052-31.64 70.402-36.23l-13.58-86.28c-34.71 5.41-58.492 19.13-87.122 39.64-4.42 3.17-6.78 8.47-6.18 13.86.98 8.96-2.1 17.73-8.45 24.08s-15.12 9.43-24.08 8.45c-5.39-.6-10.69 1.76-13.86 6.18-20.51 28.63-34.23 52.11-39.64 86.83z" fill="#2ee6a8"/><g><path d="m17.522 102.105c23.625 23.606 61.485 23.122 84.607 0 23.308-23.326 23.308-61.281 0-84.598-23.326-23.317-61.281-23.317-84.598-.009-23.249 23.227-23.497 61.12-.009 84.607z" fill="#efaea1"/></g><path d="m315.998 16.652 13.081 46.712-26.661 39.568c-21.28-3.33-36.72-21.46-36.72-43.11 0-26.76 23.88-47.3 50.3-43.17z" fill="#ffccb3"/><path d="m452.16 245.982c-21.65 0-39.78-15.44-43.11-36.72l35.765-24.645 50.515 11.075c4.12 26.38-16.38 50.29-43.17 50.29z" fill="#ffccb3"/><path d="m495.33 195.692s-81.13 14.62-86.28 13.57c-4.59-29.35-15.15-49.01-36.23-70.1-21.08-21.08-41.052-31.64-70.402-36.23l13.58-86.28c34.71 5.41 58.492 19.13 87.122 39.64 4.42 3.17 6.78 8.47 6.18 13.86-.98 8.96 2.1 17.73 8.45 24.08s15.12 9.43 24.08 8.45c5.39-.6 10.69 1.76 13.86 6.18 20.51 28.63 34.23 52.11 39.64 86.83z" fill="#f37"/><g><path d="m494.478 102.105c-23.625 23.606-61.485 23.122-84.607 0-23.308-23.326-23.308-61.281 0-84.598 23.326-23.317 61.281-23.317 84.598-.009 23.249 23.227 23.497 61.12.009 84.607z" fill="#ffccb3"/></g><path d="m196.002 495.348-13.081-46.712 26.661-39.568c21.28 3.33 36.72 21.46 36.72 43.11 0 26.76-23.88 47.3-50.3 43.17z" fill="#fdc"/><path d="m59.84 266.018c21.65 0 39.78 15.44 43.11 36.72l-35.765 24.645-50.515-11.075c-4.12-26.38 16.38-50.29 43.17-50.29z" fill="#fdc"/><path d="m16.67 316.308s81.13-14.62 86.28-13.57c4.59 29.35 15.15 49.01 36.23 70.1 21.08 21.08 41.052 31.64 70.402 36.23l-13.58 86.28c-34.71-5.41-58.492-19.13-87.122-39.64-4.42-3.17-6.78-8.47-6.18-13.86.98-8.96-2.1-17.73-8.45-24.08s-15.12-9.43-24.08-8.45c-5.39.6-10.69-1.76-13.86-6.18-20.51-28.63-34.23-52.11-39.64-86.83z" fill="#8095ff"/><g><path d="m17.522 409.895c23.625-23.606 61.485-23.122 84.607 0 23.308 23.326 23.308 61.281 0 84.598-23.326 23.317-61.281 23.317-84.598.009-23.249-23.227-23.497-61.12-.009-84.607z" fill="#fdc"/></g><path d="m315.998 495.348 13.081-46.712-26.661-39.568c-21.28 3.33-36.72 21.46-36.72 43.11 0 26.76 23.88 47.3 50.3 43.17z" fill="#e99a8b"/><path d="m452.16 266.018c-21.65 0-39.78 15.44-43.11 36.72l35.765 24.645 50.515-11.075c4.12-26.38-16.38-50.29-43.17-50.29z" fill="#e99a8b"/><path d="m495.33 316.308s-81.13-14.62-86.28-13.57c-4.59 29.35-15.15 49.01-36.23 70.1-21.08 21.08-41.052 31.64-70.402 36.23l13.58 86.28c34.71-5.41 58.492-19.13 87.122-39.64 4.42-3.17 6.78-8.47 6.18-13.86-.98-8.96 2.1-17.73 8.45-24.08s15.12-9.43 24.08-8.45c5.39.6 10.69-1.76 13.86-6.18 20.51-28.63 34.23-52.11 39.64-86.83z" fill="#ffc34d"/><g><path d="m494.478 409.895c-23.625-23.606-61.485-23.122-84.607 0-23.308 23.326-23.308 61.281 0 84.598 23.326 23.317 61.281 23.317 84.598.009 23.249-23.227 23.497-61.12.009-84.607z" fill="#e99a8b"/></g><path d="m344.59 278.522-77.98 77.99c-2.93 2.93-6.77 4.39-10.61 4.39v-171.83c24.58-24.12 64.19-23.97 88.59.43 24.55 24.54 24.55 64.48 0 89.02z" fill="#f37"/></g></svg>