<svg id="Capa_1" enable-background="new 0 0 511.877 511.877" height="512" viewBox="0 0 511.877 511.877" width="512" xmlns="http://www.w3.org/2000/svg" xmlns:xlink="http://www.w3.org/1999/xlink"><linearGradient id="SVGID_1_" gradientUnits="userSpaceOnUse" x1="255.939" x2="255.939" y1="511.877" y2="0"><stop offset="0" stop-color="#009efd"/><stop offset="1" stop-color="#2af598"/></linearGradient><g><g><path d="m508.676 291.517c-3.8-14.182-11.023-26.356-21.029-35.583 10.005-9.228 17.226-21.403 21.026-35.586 11.8-44.037-10.122-99.652-47.869-121.445-12.32-7.113-25.314-10.215-38.402-9.44.769-13.081-2.333-26.068-9.444-38.383-21.796-37.752-77.406-59.68-121.44-47.882-14.182 3.8-26.356 11.023-35.583 21.03-9.229-10.005-21.403-17.226-35.585-21.026-44.036-11.8-99.651 10.122-121.444 47.869-7.113 12.321-10.215 25.315-9.44 38.403-13.08-.769-26.067 2.334-38.381 9.443-37.755 21.797-59.682 77.41-47.884 121.441 3.8 14.182 11.023 26.356 21.03 35.583-10.004 9.228-17.225 21.402-21.025 35.584-11.799 44.036 10.121 99.65 47.867 121.443 12.152 7.016 25.127 10.233 38.402 9.449-.767 13.078 2.336 26.063 9.445 38.376 17.79 30.813 58.1 51.084 96.259 51.084 23.032 0 45.214-7.365 60.763-24.228 15.553 16.863 37.743 24.229 60.776 24.228 38.157-.002 78.469-20.267 96.253-51.072 7.113-12.319 10.215-25.311 9.442-38.397 13.773.809 26.714-2.715 38.382-9.452 37.753-21.796 59.679-77.408 47.881-121.439zm-206.804-249.681c26.426-7.08 63.85 7.426 76.447 29.245 7.803 13.516 4.38 28.381-10.163 44.228-25.855-20.673-57.508-34.374-92.094-38.24 1.068-19.323 9.535-30.873 25.81-35.233zm-168.325 29.235c12.613-21.848 50.06-36.303 76.45-29.232 16.28 4.362 24.75 15.91 25.819 35.229-34.586 3.865-66.24 17.567-92.094 38.24-14.552-15.853-17.979-30.722-10.175-44.237zm-62.475 307.257c-21.847-12.613-36.301-50.06-29.23-76.449 4.362-16.279 15.91-24.75 35.227-25.818 3.865 34.586 17.566 66.239 38.239 92.093-15.853 14.55-30.72 17.976-44.236 10.174zm5.998-142.514c-19.322-1.068-30.871-9.535-35.232-25.809-7.082-26.43 7.433-63.854 29.246-76.447 13.516-7.804 28.38-4.38 44.226 10.162-20.674 25.854-34.375 57.508-38.24 92.094zm132.936 234.228c-26.432 7.083-63.853-7.437-76.446-29.248-7.805-13.518-4.382-28.383 10.16-44.229 25.855 20.674 57.509 34.375 92.096 38.241-1.068 19.325-9.536 30.875-25.81 35.236zm168.324-29.237c-12.638 21.892-50.109 36.292-76.449 29.235-16.28-4.363-24.751-15.913-25.819-35.235 34.587-3.865 66.241-17.567 92.096-38.241 14.55 15.854 17.977 30.724 10.172 44.241zm-122.391-44.868c-77.196 0-140-62.804-140-140s62.804-140 140-140 140 62.804 140 140-62.804 140-140 140zm184.866-262.393c21.849 12.615 36.302 50.06 29.232 76.451-4.362 16.28-15.911 24.75-35.229 25.819-3.865-34.587-17.567-66.24-38.24-92.094 15.853-14.552 30.721-17.979 44.237-10.176zm-.009 244.771c-13.518 7.804-28.382 4.38-44.227-10.162 20.673-25.854 34.374-57.507 38.239-92.093 19.322 1.068 30.871 9.536 35.232 25.81 7.081 26.428-7.431 63.851-29.244 76.445zm-124.857-122.378c0 33.084-26.916 60-60 60s-60-26.916-60-60v-20h-40v20c0 55.14 44.86 100 100 100s100-44.86 100-100v-20h-40zm-100-60c11.046 0 20-8.954 20-20 0-11.046-8.954-20-20-20s-20 8.954-20 20c0 11.046 8.954 20 20 20zm80 0c11.046 0 20-8.954 20-20 0-11.046-8.954-20-20-20s-20 8.954-20 20c0 11.046 8.954 20 20 20z" fill="url(#SVGID_1_)"/></g></g></svg>