<svg id="Capa_1" enable-background="new 0 0 512 512" height="512" viewBox="0 0 512 512" width="512" xmlns="http://www.w3.org/2000/svg"><g><g><g><g><g><g><g><path d="m407.135 462.647c-42.356 31.03-94.606 49.353-151.135 49.353-57.847 0-111.213-19.187-154.081-51.543l-82.4-106.239c-12.576-30.245-19.519-63.421-19.519-98.218 0-141.385 114.615-256 256-256s256 114.615 256 256c0 36.209-7.517 70.662-21.076 101.883z" fill="#7584f2"/></g></g></g></g></g></g><path d="m490.924 357.883c13.559-31.221 21.076-65.675 21.076-101.883 0-3.61-.075-7.203-.223-10.776l-152.6-152.6-24.966 29.273-63.211-63.211-30 44.959 122.594 122.594-3.321 7.45-68.127-68.127-11.042 13.967-102.9-102.9-1.412 54.031 79.831 79.831-24.763 31.322-60.734-60.734-93.871 247.579 24.664 31.799c42.868 32.356 96.234 51.543 154.081 51.543 56.529 0 108.779-18.322 151.135-49.353z" fill="#4253ce"/><g><g><path d="m243.462 169.41c-6.183-6.183-16.207-6.183-22.39 0-6.183 6.183-6.183 16.207 0 22.39l68.601 68.601 22.39-22.39z" fill="#e09380"/><g><g><g><path d="m403.347 284.515.785-.785c7.466-7.466 9.126-18.957 4.077-28.23l-39.716-65.499c-4.712-8.395-15.334-11.384-23.726-6.675s-11.375 15.332-6.663 23.726l7.697 13.6c1.444 2.553-1.945 5.066-3.968 2.943l-7.382-7.974-63.001-63.001c-4.15-4.149-10.109-5.604-15.452-4.277v33.605l51.429 51.429-51.427 51.429-3.471 28.659 42.112 43.704c6.975 7.319 17.319 9.447 26.251 6.326l33.044 33.044 80.717-80.717z" fill="#e09380"/></g></g><path d="m404.133 283.73c7.466-7.466 9.126-18.957 4.077-28.23l-39.716-65.499c-4.712-8.395-15.334-11.384-23.726-6.675s-11.375 15.332-6.663 23.726l7.697 13.6c1.444 2.553-1.945 5.066-3.968 2.943l-7.382-7.974-63.001-63.001c-4.15-4.149-10.109-5.604-15.452-4.277v33.605l51.429 51.429-19.032 19.032 104.835 104.835 41.422-41.422-31.306-31.307z" fill="#d47f6c"/></g><path d="m221.093 169.389c-.25.252-.494.468-1.238 1.395 1.162 1.162 2.773 1.818 4.408 1.656 4.524-.449 8.719 1.091 11.899 4.271l63.967 63.967 7.301-7.301-64.14-64.14c-6.148-6.147-16.067-6.012-22.197.152z" fill="#d47f6c"/><g><path d="m490.924 357.883-55.73-55.73-94.32 94.32 66.21 66.21c36.474-26.706 65.614-62.834 83.84-104.8z" fill="#ffce00"/></g><path d="m386.668 350.68 67.448 67.449c14.885-18.167 27.326-38.414 36.807-60.246l-55.729-55.729z" fill="#ffb600"/></g><g><path d="m296.384 225.901c6.183-6.183 16.207-6.183 22.39 0 6.183 6.183 6.183 16.207 0 22.39l-51.668 51.667-22.39-22.39z" fill="#ffbeaa"/><path d="m244.716 277.568 11.284 11.284v-22.567z" fill="#ffbeaa"/><path d="m318.774 225.901c-6.183-6.183-16.207-6.183-22.39 0l-40.384 40.384v22.567l11.106 11.106 51.667-51.667c6.184-6.183 6.184-16.208.001-22.39z" fill="#faa68e"/><path d="m296.384 225.901c6.183-6.183 16.207-6.183 22.39 0 1.278 1.278 2.292 2.721 3.041 4.259-5.904-2.877-13.226-1.863-18.131 3.042l-51.667 51.667-7.301-7.301z" fill="#e09380"/><path d="m283.352 194.153c6.183-6.183 16.207-6.183 22.39 0 6.183 6.183 6.183 16.207 0 22.39l-61.025 61.026-22.39-22.39z" fill="#faa68e"/><path d="m283.352 194.153c6.183-6.183 16.207-6.183 22.39 0 1.278 1.278 2.292 2.72 3.041 4.259-5.904-2.877-13.226-1.863-18.131 3.042l-61.026 61.026-7.301-7.301z" fill="#e09380"/><path d="m268.538 164.187c6.183-6.183 16.207-6.183 22.39 0 6.183 6.183 6.183 16.207 0 22.39l-68.601 68.601-22.39-22.39z" fill="#ffbeaa"/><g><g><g><path d="m191.107 358.272c8.932 3.121 19.275.993 26.251-6.326l54.382-56.622-67.17-67.17 58.619-58.619c6.111-6.111 6.182-15.973.214-22.172-6.156-6.394-16.58-6.242-22.856.034l-63.001 63.001-7.382 7.974c-2.023 2.123-5.412-.391-3.968-2.943l7.697-13.6c4.712-8.394 1.729-19.017-6.663-23.726s-19.014-1.72-23.726 6.674l-39.716 65.499c-5.049 9.274-3.389 20.764 4.077 28.23l.785.785-31.306 31.306 80.717 80.717z" fill="#ffbeaa"/></g></g></g><g><g><g><path d="m256 279.583v32.13l15.741-16.389z" fill="#faa68e"/></g></g></g><path d="m158.063 391.316 33.044-33.044c8.932 3.121 19.275.994 26.251-6.326l54.383-56.623-44.797-44.797-104.835 104.835z" fill="#faa68e"/><path d="m293.975 168.429c-.75-1.539-1.763-2.981-3.042-4.259-6.129-6.128-16.027-6.173-22.221-.152 0-.001-.001-.002-.002-.003l-.05.05c-.038.037-.079.068-.117.105l-63.973 63.984 7.301 7.301 63.967-63.967c.038-.038.073-.076.111-.114 4.904-4.817 12.163-5.801 18.026-2.945z" fill="#faa68e"/><g><path d="m19.519 354.218c17.615 42.363 46.281 78.976 82.401 106.239l69.206-69.206-94.32-94.32z" fill="#fff"/></g><path d="m101.919 460.457 69.206-69.206-42.453-42.453-70.132 70.132c12.782 15.473 27.344 29.424 43.379 41.527z" fill="#e9edf5"/></g></g><g><path d="m241 58.686h30v44.959h-30z" fill="#fff"/></g><g><path d="m256 58.686h15v44.959h-15z" fill="#e9edf5"/></g><g><path d="m162.498 81.165h30v44.959h-30z" fill="#fff" transform="matrix(.846 -.533 .533 .846 -27.928 110.586)"/></g><g><path d="m312.022 88.645h44.959v30h-44.959z" fill="#e9edf5" transform="matrix(.533 -.846 .846 .533 68.48 331.387)"/></g></g></svg>